<?xml version="1.0" standalone="no"?>
<!DOCTYPE svg PUBLIC "-//W3C//DTD SVG 20010904//EN"
 "http://www.w3.org/TR/2001/REC-SVG-20010904/DTD/svg10.dtd">
<svg version="1.0" xmlns="http://www.w3.org/2000/svg"
 width="640.000000pt" height="382.000000pt" viewBox="0 0 640.000000 382.000000"
 preserveAspectRatio="xMidYMid meet">
<metadata>
Created by potrace 1.16, written by Peter Selinger 2001-2019
</metadata>
<g transform="translate(0.000000,382.000000) scale(0.100000,-0.100000)"
fill="#000000" stroke="none">
<g>
<path d="M3807 3813 c-4 -3 -7 -507 -7 -1120 l0 -1113 -1044 0 -1045 0 -3 -32
c-2 -18 -2 -374 0 -790 l2 -758 371 0 c244 0 368 3 364 10 -3 6 3 10 14 10 10
0 22 6 24 13 4 9 8 9 15 -2 7 -9 19 -11 37 -7 22 6 26 4 22 -8 -5 -12 1 -16
24 -16 22 0 32 5 36 20 6 23 23 27 23 5 0 -8 7 -15 15 -15 8 0 15 7 15 15 0 8
5 15 10 15 6 0 10 -4 10 -10 0 -5 11 -10 24 -10 13 0 26 -5 28 -12 6 -16 58
-1 58 17 0 8 5 15 10 15 6 0 10 -7 10 -15 0 -8 9 -15 20 -15 11 0 20 7 20 15
0 8 5 15 10 15 6 0 10 -5 10 -10 0 -15 51 -32 77 -25 13 3 23 12 23 20 0 23
17 18 24 -7 l7 -23 11 23 c12 24 43 22 64 -4 10 -12 206 -14 1288 -14 l1276 0
0 571 c0 373 4 577 10 590 18 33 130 82 275 118 117 30 205 41 342 41 l123 0
0 1250 0 1250 -1293 0 c-712 0 -1297 -3 -1300 -7z m971 -299 c17 -5 20 -10 11
-20 -6 -7 -17 -10 -25 -7 -10 4 -14 -3 -14 -25 0 -27 -14 -42 -41 -42 -17 0
-9 19 11 25 27 8 17 23 -15 23 -19 0 -25 -6 -25 -23 0 -13 -7 -25 -15 -29 -9
-3 -15 0 -15 9 0 8 5 15 10 15 6 0 10 5 10 10 0 6 -9 10 -20 10 -13 0 -20 -7
-20 -19 0 -21 -17 -37 -27 -27 -4 4 -1 12 5 18 7 7 12 20 12 29 0 39 92 70
158 53z m34 -86 c-6 -6 -16 -7 -23 -3 -9 6 -8 11 5 21 10 7 15 17 11 23 -3 6
-3 17 2 24 5 8 9 0 11 -22 2 -18 -1 -38 -6 -43z m74 -6 c-11 -10 -14 3 -8 33
l7 30 3 -28 c2 -16 1 -31 -2 -35z m-276 43 c0 -3 -4 -13 -9 -23 -5 -9 -13 -26
-17 -37 -7 -19 -7 -19 -12 -1 -4 20 16 66 30 66 4 0 8 -2 8 -5z m1677 -31 c-3
-3 -12 -4 -19 -1 -8 3 -5 6 6 6 11 1 17 -2 13 -5z m40 -10 c-3 -3 -12 -4 -19
-1 -8 3 -5 6 6 6 11 1 17 -2 13 -5z m-267 -19 c-14 -8 -29 -14 -35 -14 -5 0 1
6 15 14 14 8 30 14 35 14 6 0 -1 -6 -15 -14z m-1346 -85 c-15 -28 -54 -43 -54
-20 0 6 5 10 11 10 5 0 7 5 4 10 -3 6 4 14 17 19 36 15 38 13 22 -19z m1187
-37 c-12 -20 -14 -14 -5 12 4 9 9 14 11 11 3 -2 0 -13 -6 -23z m377 8 c7 -4
-10 -6 -40 -3 -107 9 -197 -40 -242 -130 -59 -119 -14 -246 109 -307 22 -11
35 -20 28 -21 -44 -1 -143 71 -162 118 -10 23 -17 29 -34 25 -20 -4 -21 -3 -5
9 13 11 16 26 13 57 -8 90 60 202 148 242 44 19 160 26 185 10z m-421 -81
c-11 -27 -23 -48 -25 -46 -4 5 35 96 42 96 2 0 -5 -22 -17 -50z m529 19 c4 -8
1 -8 -14 0 -12 6 -24 16 -28 22 -4 8 -1 8 14 0 12 -6 24 -16 28 -22z m-1666
-35 c0 -2 -9 -4 -20 -4 -11 0 -20 4 -20 9 0 5 9 7 20 4 11 -3 20 -7 20 -9z
m1559 5 c17 -6 31 -17 31 -25 0 -26 -62 -8 -66 19 -3 20 -5 20 35 6z m-1569
-39 c0 -5 -4 -10 -9 -10 -6 0 -13 5 -16 10 -3 6 1 10 9 10 9 0 16 -4 16 -10z
m1378 -9 c15 -10 37 -22 50 -25 17 -6 21 -13 17 -27 -4 -11 -2 -19 4 -19 6 0
11 5 11 10 0 7 7 7 20 0 11 -6 24 -8 29 -5 14 8 41 -5 41 -20 0 -7 7 -16 15
-19 12 -4 14 -10 5 -25 -14 -28 -14 -29 30 -36 56 -10 50 -23 -9 -17 -43 4
-49 2 -54 -17 -4 -16 -13 -21 -36 -21 -16 0 -34 6 -38 13 -4 6 -19 12 -33 12
-20 0 -25 5 -25 25 0 29 48 61 53 35 4 -20 22 -19 22 0 0 8 -5 15 -10 15 -6 0
-19 18 -29 40 -12 28 -21 36 -28 29 -12 -12 -53 4 -53 21 0 6 -9 10 -20 10
-22 0 -23 1 -14 24 8 21 20 20 52 -3z m233 -4 c-10 -9 -11 -8 -5 6 3 10 9 15
12 12 3 -3 0 -11 -7 -18z m34 -18 c-5 -14 -3 -19 3 -15 11 7 28 -32 18 -41 -3
-4 -6 1 -6 10 0 10 -4 17 -10 17 -5 0 -7 -8 -4 -17 4 -10 -3 -5 -13 12 -14 22
-16 33 -9 42 17 19 28 15 21 -8z m-1652 -4 c-4 -15 -26 -12 -31 3 -3 9 2 13
14 10 11 -2 18 -8 17 -13z m1114 -82 c-2 -16 -4 -5 -4 22 0 28 2 40 4 28 2
-13 2 -35 0 -50z m-1111 16 c1 -26 -2 -36 -7 -28 -5 8 -9 23 -9 34 0 17 -2 17
-10 5 -6 -9 -10 -10 -10 -3 0 7 8 17 18 22 9 6 17 11 17 11 0 0 1 -18 1 -41z
m-27 -38 c-15 -5 -22 6 -14 19 6 9 10 9 16 -1 5 -8 4 -15 -2 -18z m1254 10 c3
-14 1 -18 -9 -14 -15 6 -18 16 -7 26 9 10 10 9 16 -12z m442 9 c3 -5 1 -10 -4
-10 -6 0 -11 5 -11 10 0 6 2 10 4 10 3 0 8 -4 11 -10z m-5 -40 c0 -5 -4 -10
-10 -10 -5 0 -10 5 -10 10 0 6 5 10 10 10 6 0 10 -4 10 -10z m-543 -22 c-3 -8
-6 -5 -6 6 -1 11 2 17 5 13 3 -3 4 -12 1 -19z m258 -37 c-7 -7 -45 39 -44 54
0 6 11 -3 25 -19 14 -15 22 -31 19 -35z m-1285 40 c0 -12 -164 -26 -181 -15
-22 13 20 23 104 23 42 1 77 -3 77 -8z m195 -11 c8 -13 -5 -13 -25 0 -13 8
-13 10 2 10 9 0 20 -4 23 -10z m842 -32 c-3 -8 -6 -5 -6 6 -1 11 2 17 5 13 3
-3 4 -12 1 -19z m507 0 c-3 -4 -9 -8 -15 -8 -5 0 -9 4 -9 8 0 5 7 9 15 9 8 0
12 -4 9 -9z m-379 -7 c3 -5 1 -12 -5 -16 -5 -3 -10 1 -10 9 0 18 6 21 15 7z
m-765 -5 c0 -2 -8 -10 -17 -17 -16 -13 -17 -12 -4 4 13 16 21 21 21 13z m1110
0 c0 -3 -4 -8 -10 -11 -5 -3 -10 -1 -10 4 0 6 5 11 10 11 6 0 10 -2 10 -4z
m-1520 -22 c0 -15 -46 -45 -61 -41 -10 3 -16 -1 -15 -12 0 -9 -6 -16 -14 -16
-47 -2 -84 -65 -84 -147 -1 -47 4 -61 24 -83 30 -32 45 -19 32 29 -6 20 -7 48
-2 63 7 24 8 21 9 -21 1 -40 4 -47 17 -42 9 4 23 1 31 -5 11 -9 17 -8 27 7 11
15 17 16 28 6 8 -6 18 -9 22 -5 4 4 4 -1 0 -11 -7 -18 -8 -18 -21 0 -13 17
-13 17 -27 -1 -8 -12 -19 -16 -31 -12 -13 5 -16 3 -11 -8 4 -10 -1 -15 -14
-15 -27 0 -25 -18 5 -46 21 -20 22 -23 7 -27 -9 -3 -1 -5 18 -6 25 -1 31 -4
21 -10 -11 -7 -8 -11 15 -14 21 -3 19 -4 -6 -2 -51 4 -114 49 -136 98 -27 58
-25 158 3 217 27 58 59 87 108 99 52 12 55 12 55 5z m360 -17 c0 -2 -10 -12
-22 -23 l-23 -19 19 23 c18 21 26 27 26 19z m855 -16 c3 -5 1 -12 -5 -16 -5
-3 -10 1 -10 9 0 18 6 21 15 7z m-105 -43 c15 -21 17 -28 6 -19 -16 13 -41 51
-33 51 2 0 14 -15 27 -32z m-825 -8 c-3 -5 -11 -10 -16 -10 -6 0 -7 5 -4 10 3
6 11 10 16 10 6 0 7 -4 4 -10z m985 0 c0 -5 -4 -10 -10 -10 -5 0 -10 5 -10 10
0 6 5 10 10 10 6 0 10 -4 10 -10z m-1349 -43 c19 -13 54 -36 79 -51 25 -15 37
-26 28 -23 -12 4 -15 2 -11 -9 7 -18 -6 -18 -31 1 -10 7 -15 18 -11 24 3 6 2
11 -4 11 -5 0 -11 -5 -13 -11 -4 -11 -57 7 -69 25 -4 5 -12 5 -18 2 -12 -8
-13 -1 -5 32 8 28 13 28 55 -1z m120 -110 c-10 -9 -11 -8 -5 6 3 10 9 15 12
12 3 -3 0 -11 -7 -18z m1326 7 c-3 -3 -12 -4 -19 -1 -8 3 -5 6 6 6 11 1 17 -2
13 -5z m116 -1 c-7 -2 -19 -2 -25 0 -7 3 -2 5 12 5 14 0 19 -2 13 -5z m-1585
-239 c23 -8 54 -14 67 -14 14 0 25 -5 25 -11 0 -7 -21 -8 -67 -3 -70 7 -127
26 -139 45 -8 14 47 6 114 -17z m347 6 c-3 -5 -11 -10 -16 -10 -6 0 -7 5 -4
10 3 6 11 10 16 10 6 0 7 -4 4 -10z m1105 -90 c-34 -11 -60 -11 -35 0 11 5 29
8 40 8 16 0 15 -2 -5 -8z m-1500 -72 c-12 -11 -24 -17 -28 -13 -4 3 1 11 10
16 11 6 15 16 11 27 -6 15 -5 15 10 3 17 -13 16 -15 -3 -33z m1340 -11 c0 -2
-15 -16 -32 -33 l-33 -29 29 33 c28 30 36 37 36 29z m-625 -57 c3 -6 -1 -7 -9
-4 -18 7 -21 14 -7 14 6 0 13 -4 16 -10z m850 -27 c36 -6 38 -7 15 -14 -37
-11 -160 -10 -160 0 0 18 79 25 145 14z m-305 -23 c-6 -11 -13 -20 -16 -20 -2
0 0 9 6 20 6 11 13 20 16 20 2 0 0 -9 -6 -20z m227 -25 c0 -11 -4 -12 -14 -4
-7 6 -13 13 -13 15 0 2 6 4 13 4 8 0 14 -7 14 -15z m-676 -12 c13 -16 12 -17
-3 -4 -17 13 -22 21 -14 21 2 0 10 -8 17 -17z m769 -33 c0 -5 -7 -10 -15 -10
-8 0 -15 -4 -15 -10 0 -5 -9 -10 -20 -10 -13 0 -18 -5 -14 -15 4 -8 2 -15 -4
-15 -6 0 -12 5 -14 10 -2 6 -9 1 -16 -10 -10 -17 -10 -20 3 -20 8 0 15 -3 15
-8 0 -4 16 -16 35 -26 50 -27 30 -45 -26 -23 -56 22 -79 10 -78 -41 0 -29 2
-33 8 -17 5 11 6 25 4 31 -2 7 0 15 6 19 7 4 11 -5 11 -22 l1 -28 15 25 14 25
-1 -25 c-3 -63 -3 -63 51 -56 39 5 49 4 45 -7 -4 -8 -18 -12 -40 -9 -27 3 -35
1 -35 -12 0 -10 -6 -13 -15 -10 -8 4 -15 1 -15 -6 0 -18 20 -51 28 -46 4 2 15
-7 25 -20 22 -30 16 -30 -33 -3 -74 42 -102 152 -64 249 14 35 65 85 86 85 3
0 10 3 14 8 11 11 44 9 44 -3z m-552 -47 c-10 -2 -26 -2 -35 0 -10 3 -2 5 17
5 19 0 27 -2 18 -5z m-1078 -48 c0 -3 -4 -4 -9 -1 -5 3 -11 -13 -15 -36 -5
-29 -10 -38 -17 -31 -8 8 -8 17 0 31 15 28 14 32 -8 32 -17 0 -19 -5 -15 -39
3 -28 0 -42 -13 -52 -14 -12 -16 -12 -8 0 6 11 4 13 -7 8 -10 -3 -19 3 -26 17
-8 18 -6 25 9 34 10 7 19 19 19 26 0 8 14 17 30 21 17 4 30 11 30 17 0 5 7 3
15 -6 8 -8 15 -17 15 -21z m1267 -67 c-3 -7 -5 -2 -5 12 0 14 2 19 5 13 2 -7
2 -19 0 -25z m379 4 c-2 -4 -1 -14 4 -21 6 -10 9 -8 15 8 3 11 11 21 16 21 12
0 12 -17 -1 -25 -6 -4 -8 -11 -5 -16 10 -15 -17 -10 -37 8 -22 20 -23 33 -2
33 8 0 13 -4 10 -8z m-1562 -217 c-28 -6 -70 -23 -95 -37 -24 -14 -55 -29 -69
-33 -14 -4 -46 -23 -72 -41 -27 -19 -48 -30 -48 -25 0 11 71 75 102 92 46 26
154 57 193 57 l40 0 -51 -13z m1563 9 c-3 -3 -12 -4 -19 -1 -8 3 -5 6 6 6 11
1 17 -2 13 -5z m-62 -54 c11 0 27 -5 35 -11 11 -8 -5 -9 -59 -5 -56 4 -83 11
-112 31 -22 14 -39 27 -39 29 0 2 35 -7 78 -20 42 -13 86 -24 97 -24z m-86
-36 c14 -12 -19 -1 -35 12 -18 14 -18 14 6 3 14 -6 27 -13 29 -15z m41 -14 c8
-5 11 -10 5 -10 -5 0 -17 5 -25 10 -8 5 -10 10 -5 10 6 0 17 -5 25 -10z m57
-16 c-3 -3 -12 -4 -19 -1 -8 3 -5 6 6 6 11 1 17 -2 13 -5z m71 -1 c-10 -2 -26
-2 -35 0 -10 3 -2 5 17 5 19 0 27 -2 18 -5z m-1887 -66 c-10 -9 -11 -8 -5 6 3
10 9 15 12 12 3 -3 0 -11 -7 -18z m432 -14 c-7 -2 -19 -2 -25 0 -7 3 -2 5 12
5 14 0 19 -2 13 -5z m-56 -9 c-3 -3 -12 -4 -19 -1 -8 3 -5 6 6 6 11 1 17 -2
13 -5z m-108 -43 c-24 -16 -54 -38 -66 -50 -13 -12 -23 -18 -23 -13 0 11 42
47 83 73 50 30 56 22 6 -10z m-219 -93 c0 -9 -5 -29 -10 -43 -9 -23 -13 -25
-25 -15 -10 9 -15 9 -15 1 0 -6 -4 -11 -9 -11 -8 0 1 60 14 98 7 18 45 -7 45
-30z m45 -10 c15 -7 25 -20 25 -32 0 -15 3 -17 9 -8 7 12 14 11 41 -3 29 -15
31 -20 26 -48 -3 -17 -13 -41 -21 -54 -15 -22 -17 -23 -46 -7 -23 12 -29 20
-25 35 3 10 9 29 12 42 6 22 6 22 -9 2 -9 -11 -17 -28 -17 -37 0 -25 -20 -23
-20 2 0 11 -4 20 -10 20 -5 0 -10 -5 -10 -12 0 -6 -3 -8 -7 -5 -6 6 16 117 23
117 2 0 15 -5 29 -12z m-1550 -43 c35 -17 92 -71 83 -80 -3 -3 -22 2 -44 11
-86 37 -254 39 -356 5 -64 -21 -178 -87 -192 -110 -4 -6 -12 -11 -18 -11 -7 0
1 13 17 29 34 36 141 93 214 115 62 18 221 22 254 5 13 -6 7 2 -13 20 l-35 30
28 1 c16 0 44 -7 62 -15z m104 -30 c45 -23 102 -88 88 -102 -12 -11 -83 40
-115 83 -18 24 -30 44 -27 44 3 0 28 -11 54 -25z m1606 -17 c14 -6 25 -17 25
-25 0 -11 -5 -11 -20 -3 -24 13 -26 3 -4 -21 18 -20 11 -59 -11 -59 -19 0 -65
21 -65 30 0 15 14 19 32 9 28 -15 35 -3 9 18 -15 13 -19 25 -15 41 7 25 13 27
49 10z m-1484 -43 c37 -27 69 -78 69 -109 0 -17 -2 -17 -30 5 -31 24 -98 129
-82 129 4 0 24 -11 43 -25z m1577 -29 c-9 -7 -20 -24 -23 -39 -7 -28 3 -35 21
-17 8 8 19 7 37 -1 25 -11 32 -22 28 -43 -1 -5 4 -4 13 3 16 14 29 1 17 -18
-6 -10 -17 -8 -47 8 -21 12 -47 21 -56 21 -10 0 -18 5 -18 10 0 6 -7 10 -16
10 -12 0 -13 5 -7 23 4 12 7 36 7 54 l0 32 30 -16 c26 -14 28 -17 14 -27z
m-1721 20 c12 -12 -19 -26 -58 -26 -76 0 -126 21 -81 34 24 7 130 1 139 -8z
m-946 -38 c53 -25 58 -37 35 -92 -18 -44 -31 -51 -68 -35 -26 11 -32 10 -40
-4 -10 -19 -33 -22 -43 -6 -9 13 47 159 61 159 4 0 28 -10 55 -22z m2788 -46
c0 -9 -3 -12 -5 -5 -3 7 -11 10 -18 7 -20 -8 -86 35 -79 51 7 21 103 -29 102
-53z m-1764 41 c47 -22 44 -33 -9 -33 -75 0 -138 32 -83 43 43 8 57 7 92 -10z
m211 -90 c8 -18 14 -45 14 -60 l-1 -28 -25 30 c-28 32 -47 73 -58 120 l-8 30
32 -30 c18 -16 39 -44 46 -62z m1203 -181 c17 -33 35 -63 41 -67 5 -3 10 -12
10 -18 -1 -19 -39 33 -65 88 -13 28 -24 44 -24 37 -1 -18 45 -103 71 -132 36
-39 88 -80 101 -80 7 0 3 7 -7 15 -11 8 -15 15 -9 15 13 0 39 -30 27 -31 -17
-1 41 -20 75 -25 18 -2 40 -9 50 -14 13 -8 11 -9 -9 -6 -14 3 -47 8 -74 11
-31 4 -69 19 -100 40 -109 70 -128 111 -131 290 l-3 130 8 -97 c7 -77 15 -108
39 -156z m-2309 213 c34 -17 50 -32 50 -45 0 -23 -21 -72 -35 -82 -5 -4 -10
-13 -11 -20 -3 -38 -4 -39 -24 -28 -11 6 -20 21 -20 35 0 31 -17 41 -25 15 -7
-23 -33 -27 -41 -5 -5 12 45 154 54 155 1 0 25 -11 52 -25z m1001 -16 l34 -24
-48 -3 c-35 -2 -57 2 -82 18 -20 12 -32 26 -29 32 11 17 90 3 125 -23z m1596
-39 c14 -11 19 -21 13 -30 -5 -8 -6 -18 -3 -24 4 -5 1 -6 -6 -1 -7 4 -11 16
-8 26 3 11 1 17 -4 14 -10 -7 -59 24 -59 37 0 12 39 0 67 -22z m78 10 c-3 -5
-11 -10 -16 -10 -6 0 -7 5 -4 10 3 6 11 10 16 10 6 0 7 -4 4 -10z m-2485 -64
c0 -21 -49 -126 -59 -126 -4 0 -29 9 -55 20 -30 14 -46 27 -46 39 0 23 39 114
53 123 15 9 107 -39 107 -56z m1001 -34 c7 -20 8 -52 4 -80 l-8 -47 -22 50
c-12 28 -25 77 -28 110 l-6 60 25 -30 c13 -16 29 -45 35 -63z m1514 69 c-3 -6
-11 -11 -17 -11 -6 0 -6 6 2 15 14 17 26 13 15 -4z m-1641 -12 c14 -11 30 -29
36 -38 8 -16 6 -17 -28 -11 -45 8 -71 21 -96 49 -19 21 -19 21 21 21 26 0 50
-8 67 -21z m1606 15 c0 -9 -32 -33 -44 -34 -5 0 -1 9 9 20 18 20 35 26 35 14z
m10 -34 c0 -5 -5 -10 -11 -10 -5 0 -7 5 -4 10 3 6 8 10 11 10 2 0 4 -4 4 -10z
m-2410 -30 c37 -19 49 -38 34 -53 -4 -3 -19 0 -35 9 -36 18 -37 10 -2 -20 21
-18 25 -28 19 -50 -9 -36 -28 -42 -81 -21 -32 12 -45 22 -45 36 0 23 12 24 50
4 17 -9 30 -11 30 -6 0 6 -9 15 -20 21 -25 13 -35 52 -20 79 13 26 21 26 70 1z
m2388 12 c9 -6 6 -12 -12 -20 -22 -10 -25 -9 -23 9 1 20 14 24 35 11z m92 -2
c0 -5 -5 -10 -11 -10 -5 0 -7 5 -4 10 3 6 8 10 11 10 2 0 4 -4 4 -10z m-1665
-34 c33 -14 75 -66 75 -94 0 -19 -49 9 -93 55 -54 55 -48 66 18 39z m1456 2
c0 -10 2 -10 6 0 2 6 9 12 14 12 4 0 6 -7 3 -15 -4 -10 -13 -13 -25 -10 -22 7
-69 -35 -69 -63 0 -36 24 -72 48 -72 13 0 20 -4 17 -10 -4 -7 3 -7 19 0 14 5
26 6 26 1 0 -5 -7 -12 -16 -15 -58 -22 -124 25 -124 89 0 27 8 44 29 66 30 30
70 39 72 17z m56 -25 c-3 -3 -11 -2 -17 2 -9 6 -9 10 1 16 14 8 27 -7 16 -18z
m76 10 c-7 -2 -19 -2 -25 0 -7 3 -2 5 12 5 14 0 19 -2 13 -5z m47 3 c0 -2 -7
-7 -16 -10 -8 -3 -12 -2 -9 4 6 10 25 14 25 6z m-2330 -31 c35 -18 48 -29 44
-40 -4 -8 -15 -15 -25 -15 -13 0 -24 -13 -35 -40 -17 -42 -21 -45 -43 -31 -13
8 -12 16 2 53 16 40 16 44 1 55 -15 11 -14 43 1 43 3 0 28 -11 55 -25z m2250
10 c0 -1 -9 -12 -20 -25 -13 -15 -18 -31 -14 -49 3 -14 6 -31 7 -37 2 -6 10
-19 20 -28 22 -23 22 -32 0 -15 -31 24 -42 43 -43 70 0 39 19 86 35 86 8 0 15
-1 15 -2z m-67 -52 c-5 -30 -8 -33 -37 -30 -26 2 -32 6 -30 22 1 11 3 23 3 28
2 20 21 3 22 -20 l2 -28 4 27 c2 15 12 28 21 31 22 4 20 7 15 -30z m-1334 -4
c16 -47 13 -109 -8 -148 l-18 -34 -6 39 c-12 73 -4 174 13 174 5 0 13 -14 19
-31z m-696 -30 c84 -44 95 -56 77 -89 -11 -20 -12 -20 -101 26 -49 26 -89 52
-89 56 0 14 20 48 28 48 4 0 42 -18 85 -41z m592 -1 c31 -24 55 -74 55 -114
l0 -27 -30 34 c-17 19 -40 51 -50 71 -33 62 -24 75 25 36z m1565 -2 c-7 -7
-14 -6 -21 1 -9 9 -7 12 9 10 14 -1 18 -5 12 -11z m-1937 -31 c25 -10 37 -21
33 -30 -12 -33 -27 -97 -23 -102 3 -2 8 5 12 16 6 20 7 20 65 -9 55 -28 59
-32 58 -62 -1 -56 -8 -78 -21 -72 -8 3 -18 -9 -25 -30 -7 -19 -21 -37 -30 -39
-10 -3 -6 -5 10 -6 15 0 30 -5 33 -11 3 -5 21 -10 38 -10 27 0 35 5 44 30 15
40 49 42 48 3 0 -25 4 -28 35 -29 19 0 34 -4 33 -10 -1 -5 -5 -21 -9 -36 -4
-20 -12 -28 -27 -29 -12 0 -64 -6 -116 -13 -90 -11 -94 -11 -99 7 -12 47 -51
103 -83 120 l-34 19 25 -21 c14 -11 28 -21 32 -21 15 0 48 -90 48 -132 0 -78
-75 -158 -147 -158 -43 0 -105 31 -127 65 -16 24 -18 25 -39 10 -12 -8 -43
-15 -69 -15 -42 0 -53 5 -87 39 -64 64 -65 154 -3 215 38 36 89 50 101 29 7
-14 10 -13 16 6 4 12 18 27 31 33 38 18 30 49 -22 80 -47 29 -63 53 -47 69 6
6 32 -3 74 -26 79 -45 86 -52 71 -67 -7 -7 -12 -16 -12 -21 0 -25 40 47 70
123 46 121 45 120 77 110 16 -4 45 -15 66 -25z m-248 -39 c43 -24 81 -48 82
-53 2 -6 -1 -22 -7 -37 l-10 -28 -75 41 c-41 23 -82 41 -91 41 -21 0 -44 29
-37 47 3 7 11 13 19 13 8 0 14 5 14 10 0 18 23 10 105 -34z m1880 24 c10 -11
14 -20 8 -20 -5 0 -18 9 -28 20 -10 11 -14 20 -8 20 5 0 18 -9 28 -20z m-2382
-69 c-16 -194 81 -375 268 -500 32 -22 56 -41 51 -44 -4 -2 -1 -2 6 0 7 1 25
-3 40 -11 56 -28 182 -49 266 -43 113 7 174 30 248 93 35 29 65 49 67 43 7
-20 -23 -72 -53 -91 -28 -18 -28 -19 -6 -13 40 11 130 15 130 6 0 -5 -15 -16
-32 -24 -74 -34 -123 -40 -343 -41 -214 -1 -222 0 -296 26 -171 61 -291 165
-348 303 -18 42 -30 79 -28 82 3 2 30 -34 60 -81 77 -117 176 -212 252 -240
25 -9 20 -5 -40 36 -75 50 -103 77 -152 145 -67 94 -95 171 -101 280 -4 82 1
143 13 143 2 0 1 -31 -2 -69z m1163 -48 c8 -18 14 -54 14 -80 -1 -46 -1 -47
-16 -28 -25 31 -41 75 -49 130 l-8 50 23 -20 c13 -11 29 -34 36 -52z m85 -53
c-6 -19 -22 -48 -36 -65 l-25 -30 6 50 c7 67 12 84 38 125 l21 35 3 -40 c2
-22 -1 -56 -7 -75z m1194 28 c43 -12 57 -29 34 -43 -6 -4 -8 -22 -4 -45 4 -23
2 -41 -4 -45 -17 -10 -13 -21 12 -33 20 -10 19 -11 -14 -11 -20 -1 -77 -4
-127 -7 l-92 -7 0 102 0 101 75 0 c41 0 95 -5 120 -12z m92 -14 c-3 -3 -12 -4
-19 -1 -8 3 -5 6 6 6 11 1 17 -2 13 -5z m-1384 -158 c-3 -20 -11 -40 -18 -46
-10 -8 -15 -1 -21 32 -8 44 -6 116 4 132 11 18 41 -82 35 -118z m1074 72 c-2
-13 -4 -5 -4 17 -1 22 1 32 4 23 2 -10 2 -28 0 -40z m-972 -15 c-11 -46 -40
-96 -68 -117 -15 -11 -29 -17 -33 -14 -15 16 73 156 100 157 4 1 5 -11 1 -26z
m1310 -13 c3 -5 1 -10 -4 -10 -6 0 -11 5 -11 10 0 6 2 10 4 10 3 0 8 -4 11
-10z m-1475 -177 c-13 -24 -27 -43 -32 -43 -16 0 8 137 31 175 3 6 10 -12 15
-39 8 -43 6 -56 -14 -93z m111 30 c-24 -47 -46 -68 -95 -88 -36 -15 -38 -15
-32 0 11 29 50 70 91 97 54 35 59 34 36 -9z m1239 0 c0 -5 -5 -15 -10 -23 -8
-12 -10 -11 -10 8 0 12 5 22 10 22 6 0 10 -3 10 -7z m-70 -13 c0 -5 -4 -10
-10 -10 -5 0 -10 5 -10 10 0 6 5 10 10 10 6 0 10 -4 10 -10z m-1334 -64 c-6
-31 -54 -86 -76 -86 -15 0 26 99 52 127 20 21 24 22 26 8 2 -9 1 -32 -2 -49z
m78 -57 c-40 -42 -75 -59 -126 -59 l-43 0 51 34 c48 33 134 69 143 60 3 -2 -9
-18 -25 -35z m1156 -89 c0 -11 -4 -20 -10 -20 -5 0 -10 9 -10 20 0 11 5 20 10
20 6 0 10 -9 10 -20z m40 1 c0 -27 -17 -35 -23 -11 -5 19 0 30 15 30 4 0 8 -9
8 -19z m45 -6 c0 -26 -21 -30 -28 -6 -2 11 -2 22 1 26 11 10 27 -2 27 -20z
m-150 -76 c6 -17 17 -19 98 -20 51 0 110 -4 132 -8 31 -7 15 -9 -72 -10 -61 0
-122 3 -135 8 -13 5 -32 24 -42 42 -16 28 -17 31 -3 21 9 -8 19 -22 22 -33z"/>
<g>
<path d="M6275 3180 c3 -5 11 -10 16 -10 6 0 7 5 4 10 -3 6 -11 10 -16 10 -6
0 -7 -4 -4 -10z"/>
</g>
<g>
<path d="M6080 3126 c0 -2 7 -7 16 -10 8 -3 12 -2 9 4 -6 10 -25 14 -25 6z"/>
</g>
<g>
<path d="M6230 3030 c0 -5 4 -10 9 -10 6 0 13 5 16 10 3 6 -1 10 -9 10 -9 0
-16 -4 -16 -10z"/>
</g>
<g>
<path d="M6195 2980 c-10 -11 -15 -20 -11 -20 11 0 39 30 34 36 -3 2 -13 -5
-23 -16z"/>
</g>
<g>
<path d="M6222 2960 c-7 -11 -8 -20 -3 -20 9 0 24 30 18 36 -1 2 -8 -6 -15
-16z"/>
</g>
<g>
<path d="M4735 2880 c-3 -5 -1 -10 4 -10 6 0 11 5 11 10 0 6 -2 10 -4 10 -3 0
-8 -4 -11 -10z"/>
</g>
<g>
<path d="M4775 2710 c3 -5 8 -10 11 -10 2 0 4 5 4 10 0 6 -5 10 -11 10 -5 0
-7 -4 -4 -10z"/>
</g>
<g>
<path d="M6086 1994 c-4 -9 -4 -19 -1 -22 2 -3 7 3 11 12 4 9 4 19 1 22 -2 3
-7 -3 -11 -12z"/>
</g>
<g>
<path d="M6100 1874 c0 -8 5 -12 10 -9 6 3 10 10 10 16 0 5 -4 9 -10 9 -5 0
-10 -7 -10 -16z"/>
</g>
<g>
<path d="M4491 1951 c-8 -5 -10 -14 -6 -21 6 -9 10 -8 17 4 12 21 7 28 -11 17z"/>
</g>
<g>
<path d="M4377 1371 c-3 -12 -1 -24 4 -27 13 -8 24 25 12 37 -7 7 -12 3 -16
-10z"/>
</g>
<g>
<path d="M4440 1325 c0 -8 5 -15 10 -15 6 0 10 7 10 15 0 8 -4 15 -10 15 -5 0
-10 -7 -10 -15z"/>
</g>
<g>
<path d="M4513 1283 c-3 -10 -8 -21 -10 -25 -2 -4 1 -9 5 -12 5 -3 14 6 20 19
7 15 8 26 2 30 -6 4 -13 -2 -17 -12z"/>
</g>
<g>
<path d="M2015 1140 c-9 -28 15 -47 28 -23 6 10 4 20 -6 30 -13 14 -16 13 -22
-7z"/>
</g>
<g>
<path d="M4750 1180 c8 -5 20 -10 25 -10 6 0 3 5 -5 10 -8 5 -19 10 -25 10 -5
0 -3 -5 5 -10z"/>
</g>
<g>
<path d="M2146 1075 c-9 -24 -8 -25 15 -25 14 0 19 5 17 17 -4 23 -24 27 -32
8z"/>
</g>
<g>
<path d="M2272 995 c-16 -34 -15 -42 3 -49 17 -6 50 48 40 64 -11 18 -32 10
-43 -15z"/>
</g>
<g>
<path d="M2932 652 c-10 -17 -18 -21 -35 -16 -19 6 -20 5 -9 -9 8 -9 11 -25 7
-38 -6 -18 -4 -20 15 -14 15 5 26 1 36 -12 15 -17 15 -17 11 5 -4 15 2 27 16
37 l21 15 -21 0 c-16 0 -22 7 -25 28 l-3 27 -13 -23z"/>
</g>
<g>
<path d="M2690 555 c0 -16 9 -34 22 -45 19 -15 20 -20 9 -34 -7 -9 -20 -16
-27 -16 -16 0 -18 -9 -6 -28 6 -9 12 -5 22 13 8 14 29 35 47 46 19 12 32 24
29 27 -3 2 -12 -1 -21 -8 -20 -17 -28 -8 -27 30 0 16 -3 30 -8 30 -5 0 -15 3
-24 6 -12 5 -16 0 -16 -21z"/>
</g>
<g>
<path d="M2650 546 c0 -2 7 -7 16 -10 8 -3 12 -2 9 4 -6 10 -25 14 -25 6z"/>
</g>
<g>
<path d="M2818 523 c12 -2 32 -2 45 0 12 2 2 4 -23 4 -25 0 -35 -2 -22 -4z"/>
</g>
<g>
<path d="M2563 475 c-12 -8 -27 -31 -33 -50 -10 -30 -9 -41 7 -73 23 -47 58
-60 113 -42 24 8 40 19 40 29 0 9 -3 12 -8 6 -7 -11 -57 -35 -72 -35 -4 0 -6
9 -3 20 3 11 0 20 -6 20 -5 0 -8 -7 -5 -15 9 -21 -19 -19 -39 3 -21 23 -22 52
-2 52 8 0 15 7 15 15 0 9 -6 12 -15 9 -25 -10 -17 23 11 45 33 26 57 27 27 2
-27 -22 -30 -33 -7 -24 9 3 20 0 25 -8 6 -10 9 -2 9 24 0 42 -19 49 -57 22z"/>
</g>
<g>
<path d="M2630 465 c0 -15 6 -25 14 -25 19 0 30 32 14 42 -21 13 -28 9 -28
-17z"/>
</g>
<g>
<path d="M2804 460 c-29 -12 -64 -58 -63 -84 1 -15 3 -13 10 10 10 36 32 57
74 72 17 6 23 10 15 11 -8 0 -25 -4 -36 -9z"/>
</g>
<g>
<path d="M2899 431 c14 -16 28 -27 30 -25 5 5 -40 54 -50 54 -3 0 5 -13 20
-29z"/>
</g>
<g>
<path d="M2791 426 c-9 -11 -8 -15 5 -20 26 -10 34 -7 34 14 0 23 -22 27 -39
6z"/>
</g>
<g>
<path d="M2850 413 c0 -25 1 -26 20 -8 21 19 18 35 -6 35 -9 0 -14 -10 -14
-27z"/>
</g>
<g>
<path d="M2681 394 c0 -11 3 -14 6 -6 3 7 2 16 -1 19 -3 4 -6 -2 -5 -13z"/>
</g>
<g>
<path d="M2765 390 c-4 -7 -1 -16 6 -21 17 -10 26 8 11 23 -6 6 -12 6 -17 -2z"/>
</g>
<g>
<path d="M2893 393 c-20 -7 -15 -23 7 -23 11 0 20 4 20 9 0 13 -12 19 -27 14z"/>
</g>
<g>
<path d="M2932 360 c0 -19 2 -27 5 -17 2 9 2 25 0 35 -3 9 -5 1 -5 -18z"/>
</g>
<g>
<path d="M2741 333 c-1 -12 11 -35 25 -52 22 -26 33 -31 70 -31 34 0 51 6 69
25 14 13 25 29 25 35 0 6 -12 -2 -26 -19 -21 -25 -34 -31 -64 -31 -21 0 -42 5
-46 11 -4 8 0 9 15 4 17 -5 21 -2 21 14 0 30 -17 34 -35 9 -16 -23 -16 -23
-28 -3 -7 11 -15 29 -19 40 -6 19 -6 19 -7 -2z"/>
</g>
<g>
<path d="M2760 335 c0 -10 7 -15 17 -13 22 4 23 22 1 26 -11 2 -18 -3 -18 -13z"/>
</g>
<g>
<path d="M2880 341 c0 -5 6 -14 14 -20 11 -9 15 -8 20 5 9 23 8 24 -14 24 -11
0 -20 -4 -20 -9z"/>
</g>
<g>
<path d="M2850 290 c0 -13 5 -20 13 -17 6 2 12 10 12 17 0 7 -6 15 -12 18 -8
2 -13 -5 -13 -18z"/>
</g>
<g>
<path d="M4541 629 c-18 -15 -19 -19 -7 -19 9 0 16 -5 16 -11 0 -6 -7 -9 -15
-6 -8 4 -17 2 -20 -3 -4 -6 1 -10 9 -10 20 0 21 -19 1 -26 -8 -4 -15 -11 -15
-16 0 -6 7 -8 15 -4 10 4 15 -1 15 -15 0 -17 5 -20 42 -17 23 2 43 9 46 16 3
10 -5 12 -34 8 l-39 -6 33 15 c17 8 32 18 32 21 0 3 -15 3 -32 -1 -26 -6 -30
-4 -21 5 6 7 23 13 37 13 15 0 29 3 32 8 3 5 -2 9 -11 9 -12 0 -14 4 -6 19 12
22 3 35 -15 21 -8 -8 -16 -6 -26 3 -12 12 -17 12 -37 -4z"/>
</g>
</g>
<g>
<path d="M713 3317 c12 -12 31 -29 42 -37 15 -11 14 -7 -4 13 -30 33 -11 36
37 7 19 -12 30 -16 27 -9 -9 14 -84 48 -107 49 -15 0 -14 -3 5 -23z"/>
</g>
<g>
<path d="M2885 3315 c50 -18 57 -18 25 0 -14 8 -34 14 -45 14 -11 0 -2 -6 20
-14z"/>
</g>
<g>
<path d="M840 3300 c0 -5 5 -10 11 -10 6 0 24 -9 39 -20 20 -14 27 -26 23 -40
-5 -17 -8 -18 -21 -8 -12 10 -14 10 -8 1 4 -7 15 -17 25 -23 16 -8 17 -6 13
17 -4 19 -1 24 7 18 10 -5 10 -3 1 12 -15 23 -90 68 -90 53z"/>
</g>
<g>
<path d="M2944 3292 c3 -5 0 -12 -6 -15 -7 -2 6 -14 30 -26 44 -23 55 -16 23
13 -11 10 -25 15 -32 10 -7 -4 -10 -3 -5 4 3 6 1 14 -5 18 -7 4 -9 3 -5 -4z"/>
</g>
<g>
<path d="M3006 3278 c10 -13 19 -24 20 -26 1 -2 4 4 8 13 3 9 2 14 -3 11 -5
-3 -11 1 -15 9 -3 8 -11 15 -17 15 -7 0 -4 -9 7 -22z"/>
</g>
<g>
<path d="M783 3275 c0 -8 4 -15 9 -15 4 0 8 4 8 9 0 6 -4 12 -8 15 -5 3 -9 -1
-9 -9z"/>
</g>
<g>
<path d="M860 3260 c6 -11 13 -20 16 -20 2 0 0 9 -6 20 -6 11 -13 20 -16 20
-2 0 0 -9 6 -20z"/>
</g>
<g>
<path d="M834 3253 c2 -9 8 -19 15 -21 10 -3 10 0 2 17 -14 25 -20 27 -17 4z"/>
</g>
<g>
<path d="M2881 3266 c2 -2 15 -9 29 -15 24 -11 24 -11 6 3 -16 13 -49 24 -35
12z"/>
</g>
<g>
<path d="M961 3228 c0 -7 4 -22 9 -33 8 -18 9 -17 9 7 1 15 -3 30 -9 33 -5 3
-10 0 -9 -7z"/>
</g>
<g>
<path d="M3120 3236 c0 -2 8 -10 18 -17 15 -13 16 -12 3 4 -13 16 -21 21 -21
13z"/>
</g>
<g>
<path d="M750 3220 c0 -5 7 -7 15 -4 8 4 15 8 15 10 0 2 -7 4 -15 4 -8 0 -15
-4 -15 -10z"/>
</g>
<g>
<path d="M2953 3216 c0 -7 6 -13 14 -13 7 0 13 4 13 8 0 4 -6 9 -13 12 -8 3
-14 0 -14 -7z"/>
</g>
<g>
<path d="M3080 3220 c-9 -6 -10 -10 -3 -10 6 0 15 5 18 10 8 12 4 12 -15 0z"/>
</g>
<g>
<path d="M840 3210 c0 -5 5 -10 11 -10 5 0 7 5 4 10 -3 6 -8 10 -11 10 -2 0
-4 -4 -4 -10z"/>
</g>
<g>
<path d="M2868 3213 c7 -3 16 -2 19 1 4 3 -2 6 -13 5 -11 0 -14 -3 -6 -6z"/>
</g>
<g>
<path d="M3020 3210 c0 -5 5 -10 11 -10 5 0 7 5 4 10 -3 6 -8 10 -11 10 -2 0
-4 -4 -4 -10z"/>
</g>
<g>
<path d="M1007 3190 c7 -8 16 -27 22 -40 6 -17 10 -19 10 -8 1 9 -9 27 -21 40
-13 13 -18 17 -11 8z"/>
</g>
<g>
<path d="M3106 3201 c-3 -5 1 -11 9 -14 9 -4 12 -1 8 9 -6 16 -10 17 -17 5z"/>
</g>
<g>
<path d="M1960 3125 c-30 -70 -33 -95 -8 -95 6 0 16 7 22 16 9 12 17 13 39 5
16 -6 33 -11 38 -11 10 0 48 75 49 95 0 6 -24 23 -54 37 l-54 27 -32 -74z m90
6 c0 -20 -13 -41 -25 -41 -18 0 -26 15 -19 34 6 17 44 23 44 7z"/>
</g>
<g>
<path d="M890 3180 c0 -5 5 -10 11 -10 5 0 7 5 4 10 -3 6 -8 10 -11 10 -2 0
-4 -4 -4 -10z"/>
</g>
<g>
<path d="M945 3180 c3 -5 8 -10 11 -10 2 0 4 5 4 10 0 6 -5 10 -11 10 -5 0 -7
-4 -4 -10z"/>
</g>
<g>
<path d="M3180 3166 c0 -14 4 -27 8 -30 5 -3 6 8 4 25 -5 35 -12 38 -12 5z"/>
</g>
<g>
<path d="M800 3175 c0 -2 10 -9 21 -16 13 -6 19 -7 15 -1 -3 6 0 13 6 15 7 3
1 6 -14 6 -16 1 -28 -1 -28 -4z"/>
</g>
<g>
<path d="M980 3163 c0 -16 49 -73 63 -73 7 0 4 5 -6 11 -10 6 -27 25 -38 42
-10 18 -19 27 -19 20z"/>
</g>
<g>
<path d="M3020 3155 c46 -18 64 -17 25 0 -16 8 -37 14 -45 14 -8 0 1 -7 20
-14z"/>
</g>
<g>
<path d="M923 3143 c9 -2 23 -2 30 0 6 3 -1 5 -18 5 -16 0 -22 -2 -12 -5z"/>
</g>
<g>
<path d="M1074 3119 c14 -17 26 -35 26 -41 0 -6 3 -8 6 -5 8 8 -37 77 -49 77
-5 0 3 -14 17 -31z"/>
</g>
<g>
<path d="M3098 3143 c7 -3 16 -2 19 1 4 3 -2 6 -13 5 -11 0 -14 -3 -6 -6z"/>
</g>
<g>
<path d="M2094 3060 c-22 -56 -25 -73 -15 -83 10 -9 15 -8 25 6 19 25 34 21
38 -10 4 -38 38 -45 38 -9 0 14 5 26 11 26 13 0 42 68 35 85 -4 11 -86 55
-101 55 -2 0 -16 -32 -31 -70z m84 -8 c3 -17 -2 -22 -17 -22 -14 0 -21 6 -21
18 0 38 33 41 38 4z"/>
</g>
<g>
<path d="M3220 3110 c6 -11 13 -20 16 -20 2 0 0 9 -6 20 -6 11 -13 20 -16 20
-2 0 0 -9 6 -20z"/>
</g>
<g>
<path d="M903 3095 c15 -14 33 -25 40 -25 7 0 -1 9 -16 19 -20 13 -25 20 -15
24 7 3 2 6 -12 6 l-25 0 28 -24z"/>
</g>
<g>
<path d="M3074 3111 c7 -11 46 -35 46 -28 0 3 -12 12 -26 22 -15 9 -23 12 -20
6z"/>
</g>
<g>
<path d="M3110 3116 c0 -2 7 -7 16 -10 8 -3 12 -2 9 4 -6 10 -25 14 -25 6z"/>
</g>
<g>
<path d="M970 3106 c0 -2 7 -7 16 -10 8 -3 12 -2 9 4 -6 10 -25 14 -25 6z"/>
</g>
<g>
<path d="M15 3070 c-8 -16 -15 -50 -15 -75 0 -44 1 -47 42 -65 23 -10 45 -17
49 -14 9 5 49 110 49 127 0 12 -79 57 -100 57 -5 0 -16 -13 -25 -30z m83 -36
c3 -2 -25 -63 -33 -72 -5 -6 -35 11 -35 19 0 5 7 26 15 46 13 32 17 34 33 22
9 -7 18 -14 20 -15z"/>
</g>
<g>
<path d="M1010 3070 c0 -5 7 -10 15 -10 8 0 15 -4 15 -10 0 -5 5 -10 11 -10
14 0 2 18 -22 30 -13 7 -19 7 -19 0z"/>
</g>
<g>
<path d="M3185 3070 c-17 -8 -17 -9 7 -7 15 1 24 5 22 9 -3 4 -6 8 -7 7 -1 0
-11 -4 -22 -9z"/>
</g>
<g>
<path d="M2235 3008 c-14 -29 -25 -61 -25 -70 0 -19 85 -62 102 -52 13 8 48
91 48 113 0 14 -74 61 -96 61 -3 0 -16 -24 -29 -52z m72 -6 c10 -6 10 -15 1
-40 -12 -32 -23 -38 -44 -24 -8 5 -7 16 3 40 14 33 20 37 40 24z"/>
</g>
<g>
<path d="M3301 3044 c0 -11 3 -14 6 -6 3 7 2 16 -1 19 -3 4 -6 -2 -5 -13z"/>
</g>
<g>
<path d="M960 3041 c0 -13 68 -71 83 -71 7 0 -3 9 -22 21 -18 11 -35 29 -38
40 -5 19 -23 27 -23 10z"/>
</g>
<g>
<path d="M1010 3035 c0 -2 15 -12 33 -20 l32 -16 -25 20 c-24 20 -40 26 -40
16z"/>
</g>
<g>
<path d="M160 3011 c-16 -31 -12 -52 15 -73 36 -28 31 -39 -11 -22 -30 13 -38
13 -45 2 -13 -21 -12 -22 46 -45 l55 -21 15 28 c20 38 20 37 -17 71 -34 31
-24 40 17 13 22 -14 24 -14 34 4 8 16 4 22 -35 40 -55 27 -61 27 -74 3z"/>
</g>
<g>
<path d="M1147 2995 c9 -19 18 -33 21 -31 4 5 -26 66 -33 66 -3 0 3 -16 12
-35z"/>
</g>
<g>
<path d="M3203 3012 c-8 -5 1 -8 22 -8 21 0 30 3 22 8 -6 4 -16 8 -22 8 -5 0
-16 -4 -22 -8z"/>
</g>
<g>
<path d="M1096 2995 c4 -8 11 -15 16 -15 6 0 5 6 -2 15 -7 8 -14 15 -16 15 -2
0 -1 -7 2 -15z"/>
</g>
<g>
<path d="M1077 2972 c4 -18 43 -49 43 -35 -1 10 -36 53 -43 53 -3 0 -3 -8 0
-18z"/>
</g>
<g>
<path d="M1132 2970 c0 -14 2 -19 5 -12 2 6 2 18 0 25 -3 6 -5 1 -5 -13z"/>
</g>
<g>
<path d="M2380 2971 c-16 -31 -12 -48 17 -69 35 -26 24 -38 -15 -18 -30 15
-42 13 -42 -10 0 -12 68 -44 94 -44 7 0 18 12 25 26 11 24 9 30 -14 54 -33 34
-32 44 4 26 27 -14 41 -12 41 5 0 9 -73 49 -89 49 -6 0 -15 -9 -21 -19z"/>
</g>
<g>
<path d="M286 2955 c-3 -8 2 -19 12 -24 15 -9 15 -13 -6 -57 -19 -37 -21 -49
-10 -55 24 -16 35 -9 51 31 11 28 21 40 35 40 11 0 22 7 26 15 4 11 -9 22 -44
40 -58 29 -56 29 -64 10z"/>
</g>
<g>
<path d="M1022 2948 c3 -7 9 -12 14 -12 5 1 21 -4 37 -12 15 -8 27 -12 27 -9
0 2 -18 14 -41 26 -28 14 -40 16 -37 7z"/>
</g>
<g>
<path d="M1173 2915 c0 -22 2 -30 4 -17 2 12 2 30 0 40 -3 9 -5 -1 -4 -23z"/>
</g>
<g>
<path d="M3371 2934 c0 -11 3 -14 6 -6 3 7 2 16 -1 19 -3 4 -6 -2 -5 -13z"/>
</g>
<g>
<path d="M1131 2924 c0 -11 3 -14 6 -6 3 7 2 16 -1 19 -3 4 -6 -2 -5 -13z"/>
</g>
<g>
<path d="M2506 2923 c-4 -9 1 -21 10 -27 14 -11 14 -16 -2 -55 -14 -36 -15
-44 -3 -52 21 -13 23 -12 42 35 14 35 22 43 38 39 40 -11 19 27 -30 52 -43 21
-50 22 -55 8z"/>
</g>
<g>
<path d="M1052 2901 c8 -14 25 -31 39 -39 l24 -14 -22 18 c-12 11 -30 28 -39
39 -15 19 -16 19 -2 -4z"/>
</g>
<g>
<path d="M401 2891 c-6 -11 -11 -24 -11 -30 0 -5 39 -31 87 -57 82 -44 87 -46
100 -28 7 10 13 23 13 28 0 9 -135 91 -170 104 -5 2 -13 -6 -19 -17z"/>
</g>
<g>
<path d="M2621 2853 c-14 -31 -18 -28 91 -83 74 -38 78 -39 88 -21 5 11 10 24
10 30 0 6 -40 31 -89 55 l-88 45 -12 -26z"/>
</g>
<g>
<path d="M3360 2871 c0 -6 4 -13 10 -16 6 -3 7 1 4 9 -7 18 -14 21 -14 7z"/>
</g>
<g>
<path d="M1195 2860 c3 -5 8 -10 11 -10 2 0 4 5 4 10 0 6 -5 10 -11 10 -5 0
-7 -4 -4 -10z"/>
</g>
<g>
<path d="M604 2805 c-13 -31 -24 -61 -24 -68 0 -7 -14 -36 -30 -66 -23 -41
-30 -67 -30 -108 l0 -53 25 16 c41 26 127 15 166 -22 36 -34 59 -75 59 -104 0
-24 6 -24 140 -6 52 7 98 11 103 9 4 -3 12 9 18 26 6 17 15 28 20 25 5 -3 9 2
9 10 0 8 -4 18 -10 21 -5 3 -10 1 -10 -4 0 -6 -18 -11 -40 -11 -38 0 -40 2
-40 30 0 20 -5 30 -15 30 -8 0 -21 -13 -30 -30 -13 -25 -22 -30 -50 -30 -19 0
-35 5 -35 10 0 6 -11 10 -25 10 -14 0 -25 5 -25 10 0 6 6 10 14 10 8 0 19 14
25 30 5 17 17 30 25 30 18 0 34 42 17 48 -8 3 -8 9 0 24 6 11 7 24 2 28 -22
20 -108 59 -116 51 -4 -4 -10 -24 -14 -44 -5 -32 -3 -38 17 -45 20 -7 21 -10
7 -15 -10 -4 -17 -17 -17 -33 0 -26 -1 -26 -19 -10 -15 14 -24 15 -40 6 -23
-12 -28 -1 -9 18 10 10 10 17 -1 34 -12 19 -11 20 8 15 11 -3 24 0 29 7 9 12
54 158 49 161 -4 4 -118 45 -123 45 -3 0 -16 -25 -30 -55z"/>
</g>
<g>
<path d="M1150 2849 c0 -5 5 -7 10 -4 6 3 10 8 10 11 0 2 -4 4 -10 4 -5 0 -10
-5 -10 -11z"/>
</g>
<g>
<path d="M3320 2856 c0 -2 8 -10 18 -17 15 -13 16 -12 3 4 -13 16 -21 21 -21
13z"/>
</g>
<g>
<path d="M1066 2842 c5 -4 23 -18 39 -32 l30 -25 -29 33 c-17 17 -34 32 -40
32 -6 0 -6 -3 0 -8z"/>
</g>
<g>
<path d="M1181 2838 c0 -9 -4 -25 -7 -35 -5 -17 -5 -17 6 0 6 10 9 25 7 35 -4
15 -5 15 -6 0z"/>
</g>
<g>
<path d="M370 2825 c0 -8 -6 -12 -14 -9 -21 8 -29 -27 -9 -48 9 -10 21 -17 27
-14 6 2 44 -15 85 -37 71 -38 75 -39 88 -21 23 31 11 47 -62 87 -96 53 -115
60 -115 42z"/>
</g>
<g>
<path d="M3410 2825 c-11 -13 -10 -14 4 -9 9 3 16 10 16 15 0 13 -6 11 -20 -6z"/>
</g>
<g>
<path d="M2810 2738 c-18 -51 -41 -104 -52 -117 -12 -16 -18 -40 -18 -78 l0
-54 30 16 c74 38 180 1 213 -76 9 -22 17 -46 17 -54 0 -18 2 -18 110 -4 131
16 152 20 146 26 -9 9 14 44 25 38 5 -4 9 -1 9 4 0 7 -23 11 -56 11 l-56 0 4
30 c6 43 -35 38 -43 -5 -3 -16 -13 -21 -52 -23 -26 -2 -47 1 -47 7 0 5 -12 12
-27 14 -26 4 -27 5 -6 12 12 4 26 20 32 36 5 16 16 29 24 29 19 0 31 30 18 43
-6 6 -7 17 -1 27 11 21 4 28 -58 59 -42 21 -44 22 -58 4 -17 -23 -17 -11 0 54
l14 52 -54 21 c-30 11 -61 20 -68 20 -8 0 -27 -39 -46 -92z m170 -128 l25 -6
-22 -8 c-16 -5 -23 -15 -23 -33 0 -24 -1 -25 -18 -10 -13 12 -22 13 -36 5 -17
-10 -18 -8 -12 17 4 16 2 33 -5 41 -9 11 -7 14 14 14 14 0 28 7 32 18 7 15 9
14 14 -8 4 -15 16 -27 31 -30z"/>
</g>
<g>
<path d="M1076 2800 c8 -31 39 -83 59 -100 12 -10 15 -9 15 5 0 10 -3 15 -7
12 -7 -8 -27 18 -55 72 -13 24 -17 28 -12 11z"/>
</g>
<g>
<path d="M1212 2795 c0 -16 2 -22 5 -12 2 9 2 23 0 30 -3 6 -5 -1 -5 -18z"/>
</g>
<g>
<path d="M2582 2768 c-9 -25 -9 -34 0 -39 7 -4 15 -6 19 -3 4 2 41 -14 83 -37
l76 -41 10 27 c5 14 10 30 10 33 0 8 -164 92 -178 92 -4 0 -13 -14 -20 -32z"/>
</g>
<g>
<path d="M2560 2774 c0 -8 5 -12 10 -9 6 3 10 10 10 16 0 5 -4 9 -10 9 -5 0
-10 -7 -10 -16z"/>
</g>
<g>
<path d="M1141 2744 c0 -11 3 -14 6 -6 3 7 2 16 -1 19 -3 4 -6 -2 -5 -13z"/>
</g>
<g>
<path d="M366 2725 c-5 -14 21 -38 87 -80 16 -10 25 -21 20 -24 -4 -3 -9 -19
-11 -36 -4 -40 -16 -50 -36 -30 -9 9 -16 12 -16 6 0 -6 -15 -11 -34 -11 -39 0
-88 -36 -111 -81 -32 -60 -9 -146 49 -184 56 -37 154 -23 148 21 -1 10 7 2 18
-19 74 -136 280 -81 282 76 2 94 -60 162 -148 162 -88 0 -154 -67 -154 -158 0
-25 -6 -35 -27 -44 -42 -20 -72 -15 -103 15 -39 39 -39 95 0 134 34 34 65 38
55 8 -6 -19 -50 -70 -60 -70 -3 0 -5 8 -6 18 0 10 -3 12 -6 4 -8 -21 49 -70
93 -80 l42 -9 6 51 c4 28 7 59 7 69 0 9 4 15 8 12 5 -2 16 4 26 15 16 18 16
19 -4 32 -29 18 -29 68 -1 68 14 0 20 7 20 23 0 13 5 28 11 34 8 8 -2 18 -38
38 -26 16 -58 34 -70 41 -29 18 -40 18 -47 -1z m74 -255 c0 -16 -2 -30 -4 -30
-2 0 -11 -3 -20 -6 -9 -3 -16 -1 -16 5 0 6 8 12 18 12 16 1 16 2 0 6 -29 7
-21 43 9 43 8 0 13 -12 13 -30z m226 -9 c42 -26 60 -78 44 -126 -22 -68 -90
-94 -150 -58 -67 39 -68 145 -2 186 36 22 70 21 108 -2z"/>
<g>
<path d="M568 2454 c-28 -15 -32 -23 -29 -56 1 -10 -3 -18 -8 -18 -6 0 -11 -4
-11 -10 0 -5 6 -7 14 -4 22 8 31 -17 11 -32 -16 -12 -16 -14 8 -38 34 -34 85
-35 114 -3 31 34 35 45 15 43 -9 0 -17 6 -17 14 0 8 8 14 18 14 9 -1 17 5 17
13 0 8 -6 13 -13 10 -8 -3 -13 3 -13 14 0 11 5 19 11 19 5 0 -3 12 -18 25 -32
28 -60 31 -99 9z m102 -18 c0 -2 -7 -7 -16 -10 -8 -3 -12 -2 -9 4 6 10 25 14
25 6z m-27 -35 c18 -14 14 -48 -7 -70 -12 -12 -20 -12 -41 -3 -29 13 -33 46
-9 73 17 19 35 19 57 0z m-46 -97 c3 -8 3 -17 0 -20 -7 -7 -47 14 -47 24 0 15
41 11 47 -4z m63 -4 c0 -10 -31 -23 -38 -15 -8 7 19 35 29 29 5 -3 9 -9 9 -14z"/>
<g>
<path d="M587 2393 c-14 -13 -7 -43 12 -53 28 -14 55 13 41 41 -10 19 -40 26
-53 12z"/>
</g>
</g>
</g>
<g>
<path d="M3402 2720 c0 -14 2 -19 5 -12 2 6 2 18 0 25 -3 6 -5 1 -5 -13z"/>
</g>
<g>
<path d="M1181 2713 c-7 -8 -11 -16 -8 -19 2 -2 10 2 17 11 17 20 9 27 -9 8z"/>
</g>
<g>
<path d="M1083 2706 c0 -8 6 -12 14 -9 7 3 10 9 7 14 -8 14 -21 11 -21 -5z"/>
</g>
<g>
<path d="M1216 2705 c-3 -8 -1 -15 4 -15 6 0 10 7 10 15 0 8 -2 15 -4 15 -2 0
-6 -7 -10 -15z"/>
</g>
<g>
<path d="M2593 2695 c-9 -25 4 -29 17 -6 7 15 7 21 0 21 -6 0 -13 -7 -17 -15z"/>
</g>
<g>
<path d="M3311 2694 c0 -11 3 -14 6 -6 3 7 2 16 -1 19 -3 4 -6 -2 -5 -13z"/>
</g>
<g>
<path d="M2622 2680 c-10 -17 -7 -22 34 -46 33 -19 43 -31 39 -43 -4 -9 -9
-28 -12 -43 -6 -31 -20 -37 -29 -13 -10 25 -24 17 -24 -15 0 -19 7 -33 20 -40
23 -12 28 -42 5 -34 -8 4 -15 2 -15 -4 0 -6 6 -12 12 -14 8 -3 3 -10 -11 -17
-24 -13 -24 -13 -18 24 9 57 -1 95 -27 95 -28 0 -74 -31 -97 -66 -41 -62 -15
-165 50 -199 32 -16 108 -20 130 -6 20 13 4 55 -17 45 -29 -13 -81 -8 -101 10
-10 10 -25 31 -32 47 -16 40 7 91 51 114 l30 16 0 -31 c0 -20 -5 -30 -15 -30
-8 0 -15 5 -15 10 0 6 -5 10 -12 10 -9 0 -9 -3 -1 -11 6 -6 9 -26 6 -43 -6
-39 8 -53 65 -62 l42 -7 2 44 c1 24 1 55 0 67 -1 16 3 22 13 18 7 -2 19 2 26
11 11 13 10 18 -9 33 -27 23 -29 60 -3 67 11 3 21 12 24 21 3 10 8 24 11 33 5
12 -8 23 -51 47 -57 30 -59 30 -71 12z"/>
</g>
<g>
<path d="M1190 2665 c-7 -9 -11 -17 -9 -20 3 -2 10 5 17 15 14 24 10 26 -8 5z"/>
</g>
<g>
<path d="M1150 2660 c0 -5 5 -10 10 -10 6 0 10 5 10 10 0 6 -4 10 -10 10 -5 0
-10 -4 -10 -10z"/>
</g>
<g>
<path d="M1091 2644 c0 -11 3 -14 6 -6 3 7 2 16 -1 19 -3 4 -6 -2 -5 -13z"/>
</g>
<g>
<path d="M1131 2634 c0 -11 3 -14 6 -6 3 7 2 16 -1 19 -3 4 -6 -2 -5 -13z"/>
</g>
<g>
<path d="M1080 2600 c0 -3 -4 -20 -9 -38 -6 -20 -6 -30 0 -27 5 4 9 16 10 28
1 19 2 18 14 -8 8 -16 14 -23 14 -15 0 14 -28 72 -29 60z"/>
</g>
<g>
<path d="M1177 2575 c-29 -28 -34 -37 -14 -29 11 4 52 54 45 54 -2 0 -16 -11
-31 -25z"/>
</g>
<g>
<path d="M1125 2581 c-3 -5 -1 -12 5 -16 5 -3 10 1 10 9 0 18 -6 21 -15 7z"/>
</g>
<g>
<path d="M1165 2508 l-40 -43 45 40 c25 22 47 41 49 43 2 1 0 2 -5 2 -6 0 -28
-19 -49 -42z"/>
</g>
<g>
<path d="M1127 2510 c-3 -11 -3 -20 -1 -20 2 0 8 9 14 20 6 11 7 20 2 20 -6 0
-12 -9 -15 -20z"/>
</g>
<g>
<path d="M1195 2502 c-3 -11 -20 -35 -38 -53 -26 -27 -28 -30 -7 -17 26 16 66
75 57 84 -3 3 -8 -3 -12 -14z"/>
</g>
<g>
<path d="M3355 2483 c-8 -20 -13 -38 -10 -41 3 -3 5 -3 5 0 0 3 7 22 15 42 8
20 13 36 10 36 -2 0 -12 -16 -20 -37z"/>
</g>
<g>
<path d="M2769 2487 c-79 -53 -101 -142 -56 -221 80 -140 286 -72 274 92 -8
119 -128 190 -218 129z m116 -37 c38 -14 68 -85 55 -131 -19 -67 -80 -100
-136 -73 -59 28 -81 85 -57 146 23 58 77 81 138 58z"/>
<g>
<path d="M2784 2423 c-24 -24 -25 -28 -10 -38 22 -16 20 -25 -4 -25 -11 0 -20
-4 -20 -10 0 -5 9 -10 20 -10 11 0 20 -6 20 -13 0 -22 -12 -28 -28 -14 -13 10
-14 9 -7 -3 23 -41 49 -60 84 -59 20 0 30 3 24 6 -18 7 -16 30 2 36 17 7 29
-8 19 -25 -4 -7 3 -4 15 6 19 17 20 21 6 28 -8 5 -15 16 -15 23 0 21 28 19 33
-2 3 -10 5 0 5 22 0 22 -2 34 -5 28 -2 -7 -8 -13 -13 -13 -13 0 -20 29 -8 36
7 5 8 2 3 -7 -6 -11 -5 -12 5 -2 11 10 11 15 0 28 -12 14 -15 14 -30 0 -24
-22 -33 -19 -28 10 4 21 1 25 -18 25 -13 0 -35 -12 -50 -27z m46 -3 c0 -13 -7
-20 -20 -20 -25 0 -26 16 -2 29 23 14 22 14 22 -9z m31 -30 c36 -20 17 -90
-25 -90 -12 0 -36 33 -36 50 0 17 24 50 36 50 3 0 14 -5 25 -10z m-31 -111 c0
-15 -4 -19 -16 -15 -9 3 -18 6 -20 6 -2 0 -4 7 -4 15 0 8 9 15 20 15 14 0 20
-7 20 -21z"/>
<g>
<path d="M2816 2365 c-8 -22 4 -45 24 -45 20 0 36 33 25 50 -9 15 -42 12 -49
-5z"/>
</g>
</g>
</g>
<g>
<path d="M3411 2474 c0 -11 3 -14 6 -6 3 7 2 16 -1 19 -3 4 -6 -2 -5 -13z"/>
</g>
<g>
<path d="M0 2475 c0 -47 160 -235 200 -235 5 0 10 -4 10 -8 0 -11 98 -57 105
-50 3 3 -9 11 -27 18 -49 20 -138 83 -180 127 -20 21 -52 65 -72 98 -20 33
-36 56 -36 50z"/>
</g>
<g>
<path d="M326 2462 c-3 -5 1 -9 9 -9 8 0 15 4 15 9 0 4 -4 8 -9 8 -6 0 -12 -4
-15 -8z"/>
</g>
<g>
<path d="M2181 2465 c0 -5 6 -21 14 -35 8 -14 14 -20 14 -15 0 6 -6 21 -14 35
-8 14 -14 21 -14 15z"/>
</g>
<g>
<path d="M1112 2440 c-7 -11 -8 -20 -3 -20 9 0 24 30 18 36 -1 2 -8 -6 -15
-16z"/>
</g>
<g>
<path d="M1146 2404 c-11 -8 -14 -14 -7 -14 7 0 9 -5 5 -12 -4 -7 -3 -8 5 -4
6 4 9 11 6 16 -3 4 1 10 7 13 7 2 11 7 8 10 -3 3 -14 -1 -24 -9z"/>
</g>
<g>
<path d="M2215 2400 c-9 -14 14 -42 28 -33 6 4 8 0 5 -9 -4 -8 8 -31 28 -54
18 -21 33 -33 34 -26 0 8 5 10 13 6 7 -4 8 -3 4 2 -5 5 -16 9 -24 9 -9 0 -18
6 -21 14 -3 9 0 11 8 6 9 -5 11 -4 6 4 -4 6 -12 9 -17 6 -5 -4 -9 2 -9 12 0
24 -46 77 -55 63z"/>
</g>
<g>
<path d="M1050 2386 c0 -8 -10 -22 -22 -30 -12 -9 -19 -19 -15 -22 8 -8 46 36
47 54 0 6 -2 12 -5 12 -3 0 -5 -6 -5 -14z"/>
</g>
<g>
<path d="M2535 2381 c6 -32 28 -67 32 -54 3 7 -3 21 -13 30 -11 11 -13 18 -5
21 16 5 14 22 -3 22 -9 0 -13 -7 -11 -19z"/>
</g>
<g>
<path d="M3310 2378 c-12 -22 -12 -22 6 -6 10 10 15 20 12 24 -4 3 -12 -5 -18
-18z"/>
</g>
<g>
<path d="M3379 2383 c-13 -16 -12 -17 4 -4 16 13 21 21 13 21 -2 0 -10 -8 -17
-17z"/>
</g>
<g>
<path d="M1011 2374 c0 -11 3 -14 6 -6 3 7 2 16 -1 19 -3 4 -6 -2 -5 -13z"/>
</g>
<g>
<path d="M1077 2358 c-31 -31 -31 -32 -2 -8 16 14 34 28 40 32 5 5 6 8 2 8 -4
0 -22 -15 -40 -32z"/>
</g>
<g>
<path d="M965 2353 c-23 -30 -43 -64 -29 -48 5 6 22 25 38 43 17 17 26 32 20
32 -5 0 -18 -13 -29 -27z"/>
</g>
<g>
<path d="M3262 2360 c0 -14 2 -19 5 -12 2 6 2 18 0 25 -3 6 -5 1 -5 -13z"/>
</g>
<g>
<path d="M321 2357 c2 -1 13 -9 24 -17 19 -14 19 -14 6 3 -7 9 -18 17 -24 17
-6 0 -8 -1 -6 -3z"/>
</g>
<g>
<path d="M1102 2336 c-46 -33 -52 -41 -16 -23 17 9 36 23 43 31 18 21 12 20
-27 -8z"/>
</g>
<g>
<path d="M380 2335 c0 -8 7 -15 16 -15 14 0 14 3 4 15 -7 8 -14 15 -16 15 -2
0 -4 -7 -4 -15z"/>
</g>
<g>
<path d="M2595 2320 c-18 -8 -17 -9 8 -9 16 -1 26 3 22 9 -3 6 -7 10 -8 9 -1
0 -11 -4 -22 -9z"/>
</g>
<g>
<path d="M3296 2314 c-5 -14 20 -12 34 2 6 6 3 10 -10 10 -11 0 -22 -6 -24
-12z"/>
</g>
<g>
<path d="M3182 2298 c-7 -7 -12 -17 -12 -22 0 -6 5 -3 11 7 9 15 13 16 27 5
15 -12 16 -11 3 5 -16 20 -14 20 -29 5z"/>
</g>
<g>
<path d="M855 2253 c-27 -25 -63 -54 -80 -64 -16 -10 -25 -19 -18 -19 12 0
100 67 122 93 7 9 17 14 22 11 5 -3 9 2 9 10 0 9 -1 16 -2 16 -2 -1 -25 -21
-53 -47z"/>
</g>
<g>
<path d="M964 2288 c-4 -5 -3 -12 0 -15 3 -4 6 -1 6 5 0 6 7 9 15 6 8 -4 15
-2 15 3 0 12 -29 13 -36 1z"/>
</g>
<g>
<path d="M3237 2280 c-19 -22 -22 -35 -7 -25 10 6 34 45 28 45 -2 0 -11 -9
-21 -20z"/>
</g>
<g>
<path d="M1047 2257 c-28 -23 -48 -31 -77 -32 -22 0 -40 -3 -40 -7 0 -13 59
-9 88 6 23 12 83 67 71 65 -2 0 -21 -14 -42 -32z"/>
</g>
<g>
<path d="M988 2259 c-21 -11 -38 -22 -38 -24 0 -3 17 3 38 13 20 11 44 22 52
25 13 5 13 5 0 6 -8 0 -32 -9 -52 -20z"/>
</g>
<g>
<path d="M915 2250 c-3 -5 -1 -10 4 -10 6 0 11 5 11 10 0 6 -2 10 -4 10 -3 0
-8 -4 -11 -10z"/>
</g>
<g>
<path d="M2340 2246 c0 -2 8 -10 18 -17 15 -13 16 -12 3 4 -13 16 -21 21 -21
13z"/>
</g>
<g>
<path d="M855 2205 l-30 -25 35 1 c19 1 27 3 17 6 -18 5 -18 6 -1 24 23 26 15
23 -21 -6z"/>
</g>
<g>
<path d="M910 2169 c-19 -11 -29 -19 -22 -19 15 0 72 28 72 35 0 8 -13 4 -50
-16z"/>
</g>
<g>
<path d="M335 2170 c3 -5 10 -10 16 -10 5 0 9 5 9 10 0 6 -7 10 -16 10 -8 0
-12 -4 -9 -10z"/>
</g>
<g>
<path d="M388 2153 c6 -2 18 -2 25 0 6 3 1 5 -13 5 -14 0 -19 -2 -12 -5z"/>
</g>
<g>
<path d="M593 2143 c9 -2 23 -2 30 0 6 3 -1 5 -18 5 -16 0 -22 -2 -12 -5z"/>
</g>
<g>
<path d="M768 2143 c18 -2 45 -2 60 0 15 2 0 4 -33 4 -33 0 -45 -2 -27 -4z"/>
</g>
<g>
<path d="M663 2133 c9 -2 23 -2 30 0 6 3 -1 5 -18 5 -16 0 -22 -2 -12 -5z"/>
</g>
<g>
<path d="M253 2055 c-26 -11 -30 -25 -8 -25 26 0 16 -19 -12 -23 l-28 -4 28
-2 c34 -1 35 -13 2 -31 -25 -13 -26 -33 -1 -24 8 3 16 -4 19 -15 8 -33 87 -26
87 7 0 12 -3 13 -12 4 -13 -13 -58 -17 -58 -4 0 4 15 13 33 21 17 7 27 15 20
18 -7 2 -21 -1 -32 -7 -12 -6 -21 -8 -21 -4 0 13 35 33 60 35 17 1 20 3 8 6
-21 5 -23 14 -6 31 6 6 8 15 3 19 -4 5 -10 3 -12 -4 -4 -11 -32 -7 -43 7 -3 3
-15 1 -27 -5z m47 -29 c0 -3 -4 -8 -10 -11 -5 -3 -10 -1 -10 4 0 6 5 11 10 11
6 0 10 -2 10 -4z"/>
</g>
<g>
<path d="M411 2040 c-1 -27 -4 -31 -11 -20 -8 12 -10 11 -10 -7 0 -12 5 -23
12 -25 9 -3 9 -12 -1 -36 -8 -18 -11 -36 -7 -39 4 -4 9 3 13 15 5 19 8 20 21
10 14 -11 15 -10 8 7 -12 29 -13 49 -1 55 6 3 12 -15 15 -40 4 -38 9 -46 28
-48 38 -6 47 11 44 77 -4 57 -5 61 -28 61 -13 0 -24 6 -24 13 -1 7 -6 5 -14
-5 -7 -10 -18 -18 -24 -18 -6 0 -13 8 -15 18 -3 9 -5 1 -6 -18z m99 -40 c0
-16 -4 -30 -10 -30 -5 0 -10 11 -10 24 0 15 -7 26 -17 29 -11 3 -7 5 10 6 24
1 27 -3 27 -29z m-30 -10 c0 -5 -4 -10 -10 -10 -5 0 -10 5 -10 10 0 6 5 10 10
10 6 0 10 -4 10 -10z m30 -54 c0 -3 -11 -6 -25 -6 -26 0 -36 25 -13 32 12 4
38 -14 38 -26z"/>
</g>
<g>
<path d="M578 2051 c-12 -14 -13 -22 -5 -30 9 -9 8 -17 -1 -31 -9 -14 -9 -20
-1 -20 7 0 9 -11 6 -30 -4 -16 -2 -30 3 -30 15 0 20 16 22 64 l2 46 48 0 c26
0 48 5 48 10 0 6 -7 10 -16 10 -9 0 -23 8 -30 18 -13 16 -14 16 -8 0 5 -14 1
-18 -19 -18 -15 0 -27 6 -29 15 -2 13 -6 13 -20 -4z"/>
</g>
<g>
<path d="M761 2058 c0 -9 -7 -19 -13 -21 -10 -4 -10 -8 1 -15 10 -7 10 -14 2
-30 -14 -26 -14 -35 -1 -27 6 4 10 -7 10 -27 0 -21 3 -28 9 -20 4 7 6 25 3 39
-4 19 -1 24 9 21 8 -3 16 -18 19 -34 4 -24 10 -29 33 -29 21 -1 27 4 27 20 0
11 4 26 9 34 7 10 5 19 -6 26 -13 9 -13 16 -4 33 10 19 9 22 -9 22 -11 0 -20
5 -20 10 0 18 -18 11 -25 -9 -7 -23 -32 -18 -38 7 -4 16 -5 16 -6 0z m79 -23
c0 -3 -9 -15 -19 -26 -19 -20 -41 -19 -41 2 0 6 4 8 9 4 6 -3 16 1 23 9 13 15
28 21 28 11z m7 -51 c-3 -3 -12 -4 -19 -1 -8 3 -5 6 6 6 11 1 17 -2 13 -5z m3
-38 c0 -9 -7 -12 -20 -9 -11 3 -20 9 -20 14 0 5 9 9 20 9 11 0 20 -6 20 -14z"/>
</g>
<g>
<path d="M2490 2023 c0 -6 -10 -14 -22 -16 l-23 -4 22 -8 c29 -9 20 -25 -15
-26 -23 -1 -22 -3 8 -8 l35 -6 -35 -23 c-26 -18 -29 -22 -12 -19 17 4 22 1 22
-14 0 -18 7 -21 50 -21 35 0 40 2 40 17 0 8 -4 15 -10 15 -5 0 -10 -4 -10 -10
0 -5 -11 -10 -25 -10 -35 0 -31 16 8 30 17 7 27 14 20 17 -7 2 -21 -1 -32 -7
-12 -6 -21 -8 -21 -4 0 13 35 33 60 35 17 1 20 3 8 6 -21 5 -23 14 -6 31 6 6
8 15 3 19 -4 5 -10 3 -12 -4 -5 -13 -34 -6 -45 11 -5 8 -8 7 -8 -1z m30 -37
c0 -3 -4 -8 -10 -11 -5 -3 -10 -1 -10 4 0 6 5 11 10 11 6 0 10 -2 10 -4z"/>
</g>
<g>
<path d="M2630 2005 c0 -15 -4 -24 -10 -20 -5 3 -10 -3 -10 -15 0 -12 5 -18
10 -15 13 8 13 -21 -1 -47 -14 -26 -3 -37 14 -14 12 16 15 16 28 4 20 -21 67
-28 79 -13 8 10 4 13 -21 12 -18 -1 -34 4 -36 11 -4 9 3 12 23 10 28 -3 29 -1
32 45 3 45 2 47 -22 47 -15 0 -26 6 -26 13 0 6 -5 4 -11 -5 -5 -10 -17 -18
-25 -18 -8 0 -13 4 -9 9 3 5 1 12 -5 16 -6 4 -10 -5 -10 -20z m98 -42 c2 -19
-1 -33 -7 -33 -6 0 -11 11 -11 25 0 16 -6 25 -15 25 -8 0 -15 5 -15 11 0 6 10
9 23 7 17 -2 23 -11 25 -35z m-58 -31 c0 -24 -1 -25 -16 -10 -10 9 -14 24 -10
33 9 23 26 9 26 -23z m26 11 c-10 -10 -19 5 -10 18 6 11 8 11 12 0 2 -7 1 -15
-2 -18z"/>
</g>
<g>
<path d="M2811 2018 c-1 -9 -7 -19 -13 -21 -10 -4 -9 -8 2 -16 13 -9 13 -12
-2 -27 -16 -16 -16 -18 0 -30 13 -10 14 -15 4 -27 -8 -9 -9 -18 -3 -21 14 -9
21 7 23 58 3 50 6 53 61 50 20 -1 37 2 37 7 0 5 -7 9 -15 9 -7 0 -19 8 -24 18
-9 15 -10 15 -11 1 0 -27 -40 -31 -50 -6 -6 16 -9 18 -9 5z"/>
</g>
<g>
<path d="M2973 2005 c-7 -16 -7 -25 -1 -25 6 0 7 -8 3 -17 -4 -10 -10 -24 -13
-32 -3 -9 -1 -12 6 -7 8 5 12 -1 12 -18 0 -14 5 -26 10 -26 6 0 10 14 10 31 0
17 4 28 10 24 6 -3 10 -17 10 -31 0 -21 5 -24 34 -24 30 0 34 3 39 33 3 21 0
36 -10 44 -11 9 -12 16 -3 32 9 18 8 21 -9 21 -11 0 -21 6 -23 12 -3 8 -10 3
-18 -11 l-12 -24 -17 21 -16 22 -12 -25z m97 -15 c0 -5 -4 -10 -9 -10 -6 0
-13 5 -16 10 -3 6 1 10 9 10 9 0 16 -4 16 -10z m-32 -22 c-6 -18 -25 -20 -31
-3 -5 10 0 15 14 15 12 0 19 -5 17 -12z m29 -24 c-3 -3 -12 -4 -19 -1 -8 3 -5
6 6 6 11 1 17 -2 13 -5z m3 -39 c0 -9 -6 -12 -15 -9 -8 4 -15 10 -15 15 0 5 7
9 15 9 8 0 15 -7 15 -15z"/>
</g>
<g>
<path d="M628 1980 c2 -16 8 -30 13 -30 10 0 11 7 3 38 -9 33 -21 27 -16 -8z"/>
</g>
<g>
<path d="M664 1973 c-6 -27 -16 -39 -34 -44 -18 -5 -11 -7 25 -7 28 0 42 2 32
5 -12 3 -16 10 -13 20 14 35 18 63 9 63 -5 0 -14 -17 -19 -37z"/>
</g>
<g>
<path d="M40 1990 c0 -5 23 -10 50 -10 28 0 50 5 50 10 0 6 -22 10 -50 10 -27
0 -50 -4 -50 -10z"/>
</g>
<g>
<path d="M945 1990 c-4 -6 15 -10 50 -10 35 0 54 4 50 10 -3 6 -26 10 -50 10
-24 0 -47 -4 -50 -10z"/>
</g>
<g>
<path d="M2851 1955 c0 -11 4 -27 9 -35 9 -13 10 -13 9 0 0 8 -4 24 -9 35 l-9
20 0 -20z"/>
</g>
<g>
<path d="M2886 1929 c-6 -37 -9 -41 -31 -36 -14 2 -25 0 -25 -4 0 -5 21 -9 46
-9 40 0 45 2 34 15 -7 9 -9 26 -5 45 4 17 2 30 -3 30 -5 0 -12 -18 -16 -41z"/>
</g>
<g>
<path d="M142 1690 c0 -19 2 -27 5 -17 2 9 2 25 0 35 -3 9 -5 1 -5 -18z"/>
</g>
<g>
<path d="M301 1702 c0 -13 6 -30 14 -38 16 -16 22 -5 6 12 -5 5 -11 18 -14 29
-4 18 -5 17 -6 -3z"/>
</g>
<g>
<path d="M390 1700 c0 -15 6 -20 28 -19 25 2 26 2 3 6 -16 3 -20 7 -12 13 10
5 9 9 -3 13 -11 5 -16 1 -16 -13z"/>
</g>
<g>
<path d="M2414 1695 c-4 -15 -2 -31 4 -37 12 -12 32 -2 31 15 0 9 -2 9 -6 0
-7 -20 -23 -15 -23 6 0 21 15 37 22 24 3 -5 4 -4 3 1 -3 22 -25 15 -31 -9z"/>
</g>
<g>
<path d="M2484 1712 c4 -7 0 -24 -8 -37 -15 -23 -15 -25 0 -25 10 0 14 3 11 6
-3 4 -2 16 4 26 8 15 8 23 -2 32 -9 8 -10 8 -5 -2z"/>
</g>
<g>
<path d="M2640 1705 c-7 -9 -8 -15 -2 -15 5 0 12 7 16 15 3 8 4 15 2 15 -2 0
-9 -7 -16 -15z"/>
</g>
<g>
<path d="M250 1695 c0 -8 2 -15 4 -15 2 0 6 7 10 15 3 8 1 15 -4 15 -6 0 -10
-7 -10 -15z"/>
</g>
<g>
<path d="M337 1703 c-4 -3 -7 -11 -7 -17 0 -6 5 -4 11 4 9 12 10 11 6 -7 -3
-13 -2 -25 2 -27 4 -3 8 9 9 25 2 28 -7 37 -21 22z"/>
</g>
<g>
<path d="M467 1690 c-3 -11 -1 -20 4 -20 5 0 9 9 9 20 0 11 -2 20 -4 20 -2 0
-6 -9 -9 -20z"/>
</g>
<g>
<path d="M565 1700 c-3 -5 -4 -14 0 -20 8 -13 35 -1 35 16 0 16 -26 19 -35 4z"/>
</g>
<g>
<path d="M634 1690 c0 -11 3 -20 7 -20 4 0 9 9 12 20 3 12 0 20 -7 20 -6 0
-12 -9 -12 -20z"/>
</g>
<g>
<path d="M2667 1703 c-4 -3 -7 -13 -7 -22 1 -13 3 -13 11 2 11 19 8 33 -4 20z"/>
</g>
<g>
<path d="M2722 1690 c0 -14 2 -19 5 -12 2 6 2 18 0 25 -3 6 -5 1 -5 -13z"/>
</g>
<g>
<path d="M2822 1680 c0 -19 2 -27 5 -17 2 9 2 25 0 35 -3 9 -5 1 -5 -18z"/>
</g>
<g>
<path d="M2842 1680 c0 -19 2 -27 5 -17 2 9 2 25 0 35 -3 9 -5 1 -5 -18z"/>
</g>
<g>
<path d="M2898 1702 c-21 -4 -23 -17 -6 -28 7 -4 8 -3 4 4 -4 7 -1 12 9 12 12
0 14 -4 5 -19 -12 -24 -13 -34 -1 -27 12 8 20 42 12 53 -3 5 -14 7 -23 5z"/>
</g>
<g>
<path d="M70 1684 c0 -13 18 -39 24 -34 2 3 -2 14 -10 24 -8 11 -14 16 -14 10z"/>
</g>
<g>
<path d="M2560 1670 c0 -5 5 -10 10 -10 6 0 10 5 10 10 0 6 -4 10 -10 10 -5 0
-10 -4 -10 -10z"/>
</g>
<g>
<path d="M255 1660 c-3 -5 1 -10 10 -10 9 0 13 5 10 10 -3 6 -8 10 -10 10 -2
0 -7 -4 -10 -10z"/>
</g>
<g>
<path d="M580 1660 c-9 -6 -10 -10 -3 -10 6 0 15 5 18 10 8 12 4 12 -15 0z"/>
</g>
<g>
<path d="M2930 1660 c0 -5 5 -10 11 -10 5 0 7 5 4 10 -3 6 -8 10 -11 10 -2 0
-4 -4 -4 -10z"/>
</g>
<g>
<path d="M575 1314 c35 -30 131 -77 146 -72 6 2 -6 20 -25 40 -34 35 -87 58
-131 58 -17 -1 -16 -4 10 -26z"/>
</g>
<g>
<path d="M697 1306 c29 -52 153 -152 153 -123 0 26 -50 85 -87 102 -21 10 -46
22 -56 27 -16 8 -17 7 -10 -6z"/>
</g>
<g>
<path d="M6070 1295 c-99 -16 -214 -44 -259 -62 -98 -40 -130 -58 -139 -78 -7
-15 -11 -222 -11 -589 l-1 -566 370 0 370 0 0 109 0 108 -67 -4 c-99 -6 -173
4 -166 23 5 13 9 13 27 1 18 -11 73 -15 81 -5 1 2 0 28 -2 60 -5 51 -8 57 -32
61 -14 3 -31 1 -38 -4 -8 -7 -15 -4 -22 8 -9 17 -10 17 -17 -2 -4 -11 -11 -23
-16 -26 -5 -3 -4 -18 3 -32 9 -21 9 -30 0 -41 -7 -8 -10 -20 -6 -26 4 -6 -6
-10 -26 -10 -31 0 -32 1 -13 15 16 12 17 16 5 24 -9 6 -11 15 -6 27 16 39 15
65 -3 63 -9 -1 -25 1 -35 6 -10 4 -23 2 -31 -4 -7 -6 -16 -8 -19 -4 -4 3 -7
-1 -7 -10 0 -9 -4 -17 -10 -17 -19 0 -10 -21 12 -29 18 -6 19 -9 5 -14 -10 -4
-17 -11 -17 -16 0 -6 7 -8 15 -4 10 3 15 0 13 -8 -2 -9 8 -15 25 -17 49 -6 28
-20 -35 -24 -83 -4 -102 13 -96 88 6 76 20 86 120 82 46 -2 86 -7 90 -13 5 -6
8 -6 8 2 0 8 32 11 108 11 145 0 152 1 152 10 0 5 -51 12 -113 15 -140 7 -208
31 -276 96 -41 39 -102 131 -87 131 3 0 19 -20 36 -45 17 -25 34 -44 38 -42 4
1 8 -2 10 -8 7 -24 58 -65 105 -85 39 -17 78 -23 169 -27 l118 -6 0 32 c0 28
-2 31 -19 21 -35 -18 -71 -11 -102 19 -34 34 -38 77 -12 122 20 34 48 44 99
36 40 -7 44 0 8 13 -17 7 -38 7 -60 1 -28 -8 -34 -7 -34 6 0 16 -41 59 -76 79
-40 24 -5 22 40 -2 26 -14 50 -24 52 -21 2 2 13 28 23 58 17 51 20 54 50 52
l32 -1 -2 142 -1 142 -30 -4 c-21 -3 -29 -1 -24 7 4 6 18 11 32 11 15 0 24 6
24 15 0 15 -14 19 -60 17 -22 -1 -22 0 -5 7 19 8 19 8 0 19 -17 10 -17 11 -3
12 9 0 28 -4 42 -10 l26 -10 0 65 0 65 -127 -1 c-71 -1 -162 -7 -203 -14z
m203 -132 c-7 -2 -21 -2 -30 0 -10 3 -4 5 12 5 17 0 24 -2 18 -5z m-408 -133
c23 -9 26 -14 20 -38 -7 -30 -22 -43 -42 -35 -7 3 -20 0 -27 -6 -25 -21 -28 6
-6 49 23 45 20 43 55 30z m105 -55 c0 -3 -8 -23 -17 -45 -19 -43 -33 -52 -33
-20 0 23 -10 26 -28 8 -17 -17 -16 10 3 56 15 36 15 36 45 21 17 -9 30 -18 30
-20z m80 -50 c0 -25 -23 -65 -37 -65 -19 0 -53 19 -53 29 0 5 7 25 15 45 15
36 15 36 45 21 17 -9 30 -22 30 -30z m64 -10 c11 -8 17 -18 13 -21 -4 -4 -13
-2 -20 4 -8 7 -17 9 -21 5 -4 -4 3 -15 15 -24 14 -10 20 -22 16 -33 -8 -20
-37 -21 -63 0 -18 15 -18 15 9 9 29 -6 39 11 12 21 -8 4 -15 14 -15 23 0 34
22 40 54 16z m90 -57 c-3 -5 -10 -6 -15 -2 -5 3 -14 -8 -20 -25 -6 -17 -15
-29 -20 -26 -4 3 -4 17 2 32 6 17 6 30 -1 38 -5 6 -7 15 -4 18 9 9 64 -25 58
-35z m71 -20 c46 -22 53 -32 35 -43 -12 -7 -100 32 -100 44 0 8 11 21 16 21 2
0 24 -10 49 -22z m-18 -44 c46 -18 48 -21 32 -44 -8 -11 -12 -12 -16 -2 -2 6
-8 12 -13 12 -4 0 -25 7 -45 16 -29 12 -35 18 -24 25 18 11 16 12 66 -7z m4
-150 c5 -6 6 -14 2 -17 -11 -12 -21 -8 -26 11 -4 13 -5 12 -6 -5 -1 -16 -9
-23 -28 -26 -27 -4 -27 -4 3 -6 27 -1 32 -5 32 -26 0 -18 -6 -25 -20 -25 -11
0 -16 -4 -12 -11 4 -8 -1 -9 -17 -4 -13 4 -24 8 -25 9 -17 41 -23 49 -23 34
-2 -31 37 -61 70 -54 22 4 29 2 29 -9 0 -14 -23 -20 -60 -16 -8 1 -28 16 -43
33 -33 35 -31 68 6 106 23 22 93 50 82 31 -4 -5 -1 -9 4 -9 6 0 12 8 12 18 1
14 2 13 6 -3 3 -11 9 -25 14 -31z m-200 -141 c13 -16 12 -17 -3 -4 -17 13 -22
21 -14 21 2 0 10 -8 17 -17z m24 -213 c-3 -5 -12 -10 -18 -10 -7 0 -6 4 3 10
19 12 23 12 15 0z m115 -6 c0 -8 -4 -12 -10 -9 -5 3 -10 10 -10 16 0 5 5 9 10
9 6 0 10 -7 10 -16z m-110 -24 c0 -5 -8 -10 -17 -10 -15 0 -16 2 -3 10 19 12
20 12 20 0z m145 0 c3 -5 1 -10 -4 -10 -6 0 -11 5 -11 10 0 6 2 10 4 10 3 0 8
-4 11 -10z m-195 -150 c0 -5 -5 -10 -11 -10 -5 0 -7 5 -4 10 3 6 8 10 11 10 2
0 4 -4 4 -10z m70 6 c0 -3 -4 -8 -10 -11 -5 -3 -10 -1 -10 4 0 6 5 11 10 11 6
0 10 -2 10 -4z"/>
<g>
<path d="M5836 1004 c-9 -22 -8 -24 9 -24 8 0 15 6 15 14 0 22 -17 28 -24 10z"/>
</g>
<g>
<path d="M5917 966 c-3 -8 1 -17 9 -20 9 -4 14 1 14 14 0 23 -15 27 -23 6z"/>
</g>
<g>
<path d="M5991 918 c-5 -15 -4 -26 2 -30 13 -8 27 9 27 35 0 24 -19 21 -29 -5z"/>
</g>
<g>
<path d="M6162 628 c-20 -20 -13 -32 7 -14 11 10 24 15 30 12 5 -4 12 -2 16 4
9 14 -38 13 -53 -2z"/>
</g>
<g>
<path d="M6160 580 c0 -5 5 -10 10 -10 6 0 10 5 10 10 0 6 -4 10 -10 10 -5 0
-10 -4 -10 -10z"/>
</g>
</g>
<g>
<path d="M345 1286 c-60 -15 -170 -63 -185 -82 -6 -7 20 3 58 22 132 66 262
79 387 40 11 -3 2 3 -20 14 -47 23 -159 26 -240 6z"/>
</g>
<g>
<path d="M831 1254 c2 -5 16 -31 31 -59 26 -50 98 -129 98 -108 0 31 -33 97
-61 121 -45 38 -72 57 -68 46z"/>
</g>
<g>
<path d="M600 1233 c-44 -14 -44 -16 -10 -28 54 -21 130 -18 130 5 0 19 -84
36 -120 23z"/>
</g>
<g>
<path d="M708 1183 c-39 -6 -35 -15 15 -35 45 -19 80 -22 112 -8 18 7 14 10
-25 29 -45 21 -52 22 -102 14z"/>
</g>
<g>
<path d="M967 1114 c6 -41 46 -128 63 -139 6 -4 10 8 10 30 0 40 -27 101 -58
129 -21 18 -21 18 -15 -20z"/>
</g>
<g>
<path d="M780 1113 c0 -17 69 -53 119 -63 29 -5 57 -12 62 -15 5 -4 9 -3 9 2
0 12 -65 62 -95 73 -31 12 -95 13 -95 3z"/>
</g>
<g>
<path d="M0 1037 c0 -7 5 -18 10 -23 8 -8 8 -19 0 -38 -12 -33 -13 -86 -2 -86
9 0 26 33 48 92 13 37 13 38 -16 53 -35 18 -40 19 -40 2z"/>
</g>
<g>
<path d="M880 1020 c0 -12 78 -70 94 -70 6 0 23 -7 39 -14 36 -19 34 -9 -5 33
-43 46 -128 80 -128 51z"/>
</g>
<g>
<path d="M1055 972 c1 -67 24 -149 37 -130 20 33 -1 164 -30 182 -4 2 -7 -21
-7 -52z"/>
</g>
<g>
<path d="M81 982 c-17 -32 -13 -49 16 -70 35 -26 24 -38 -15 -18 -27 14 -31
14 -36 -1 -8 -19 -10 -16 31 -37 47 -23 72 -20 83 10 11 28 6 42 -22 62 -29
21 -21 34 11 18 44 -23 58 0 17 27 -42 28 -73 31 -85 9z"/>
</g>
<g>
<path d="M206 933 c-4 -9 1 -21 10 -28 16 -11 16 -15 0 -55 -14 -35 -15 -45
-4 -51 20 -13 31 -6 43 32 8 23 18 34 31 34 17 0 41 22 32 30 -1 1 -26 14 -55
28 -45 23 -52 24 -57 10z"/>
</g>
<g>
<path d="M962 904 c11 -19 32 -43 45 -52 14 -9 36 -27 50 -39 13 -13 25 -23
27 -23 2 0 -8 23 -23 52 -25 50 -78 98 -107 98 -10 0 -7 -10 8 -36z"/>
</g>
<g>
<path d="M322 865 c-7 -14 -12 -28 -12 -30 0 -6 181 -97 185 -93 17 21 23 47
12 56 -9 7 -109 61 -168 90 -3 1 -11 -9 -17 -23z"/>
</g>
<g>
<path d="M1110 829 c-6 -30 -10 -76 -8 -104 l4 -50 23 49 c18 37 21 58 17 90
-11 70 -23 75 -36 15z"/>
</g>
<g>
<path d="M539 813 c-5 -16 -21 -56 -35 -90 -13 -34 -24 -66 -24 -71 0 -5 -7
-15 -15 -22 -10 -8 -15 -31 -15 -70 l0 -58 43 16 c57 20 109 10 153 -31 33
-32 73 -107 55 -107 -5 0 -12 12 -15 26 -11 44 -36 72 -82 95 -77 37 -159 5
-195 -75 -23 -52 -23 -90 0 -142 22 -48 62 -80 114 -89 73 -14 157 52 172 136
6 32 10 35 43 37 20 2 66 7 102 12 112 16 117 15 112 -25 -5 -43 8 -45 31 -6
19 32 22 97 7 121 -9 13 -10 13 -10 0 0 -12 -10 -14 -45 -12 -42 4 -45 6 -45
33 0 39 -28 38 -41 -1 -10 -27 -15 -30 -52 -29 -23 1 -55 4 -72 8 -29 7 -29 7
-9 19 12 6 27 25 32 42 6 16 17 30 25 30 17 0 33 33 18 38 -6 2 -8 15 -5 30 5
24 0 30 -44 55 -60 33 -68 33 -75 5 -4 -12 -8 -20 -11 -17 -3 3 1 27 9 54 8
26 15 54 15 61 0 11 -95 54 -121 54 -5 0 -14 -12 -20 -27z m121 -179 c0 -8 10
-14 23 -14 l22 0 -23 -18 c-15 -12 -21 -24 -16 -35 8 -21 -2 -22 -23 -2 -12
12 -18 13 -29 4 -19 -16 -30 -3 -14 16 11 13 10 19 -6 37 -19 21 -19 21 3 16
13 -4 27 0 34 8 13 16 29 10 29 -12z m-70 -179 c78 -40 78 -160 0 -200 -37
-19 -53 -19 -90 0 -76 40 -78 158 -2 199 35 19 56 20 92 1z"/>
<g>
<path d="M515 450 c-12 -4 -27 -16 -35 -26 -14 -18 -14 -18 6 -1 24 20 40 22
50 5 5 -7 2 -9 -8 -5 -11 4 -25 -5 -42 -26 -30 -35 -32 -47 -11 -47 20 0 19
-27 -1 -38 -13 -7 -11 -13 16 -35 45 -38 103 -27 132 26 6 12 6 17 0 13 -5 -3
-15 1 -22 9 -10 13 -14 13 -27 0 -36 -37 -89 7 -64 54 18 32 59 28 74 -7 7
-17 18 -27 26 -24 7 2 18 -2 23 -9 7 -10 8 -1 4 25 -9 63 -70 107 -121 86z
m79 -26 c9 -8 21 -24 26 -35 9 -15 7 -19 -5 -19 -9 0 -14 4 -11 9 3 4 -4 19
-15 32 -17 20 -22 21 -29 9 -8 -13 -10 -12 -10 3 0 21 23 22 44 1z m-64 -140
c0 -16 -9 -18 -29 -5 -7 5 -11 14 -7 19 9 15 36 4 36 -14z m60 -6 c0 -5 -9 -8
-20 -8 -23 0 -26 10 -8 28 9 9 14 9 20 -1 4 -6 8 -15 8 -19z"/>
</g>
<g>
<path d="M521 376 c-15 -18 2 -56 23 -56 25 0 39 26 26 49 -13 24 -33 27 -49
7z"/>
</g>
</g>
<g>
<path d="M1006 788 c8 -24 28 -57 44 -75 17 -18 35 -43 40 -55 7 -18 8 -14 4
17 -9 58 -29 102 -60 130 -38 35 -45 31 -28 -17z"/>
</g>
<g>
<path d="M286 779 c-17 -34 -12 -54 10 -45 8 3 47 -12 86 -34 40 -22 76 -40
80 -40 3 0 11 13 16 30 12 34 19 27 -98 87 -36 18 -68 33 -72 33 -3 0 -14 -14
-22 -31z"/>
</g>
<g>
<path d="M260 784 c0 -8 5 -12 10 -9 6 3 10 10 10 16 0 5 -4 9 -10 9 -5 0 -10
-7 -10 -16z"/>
</g>
<g>
<path d="M6373 706 c0 -17 4 -23 13 -19 8 3 14 14 14 24 0 10 -6 19 -14 19 -8
0 -13 -10 -13 -24z"/>
</g>
<g>
<path d="M294 709 c-7 -12 35 -52 79 -76 25 -12 28 -18 22 -46 -12 -53 -19
-61 -38 -43 -10 10 -18 12 -22 6 -3 -5 -16 -10 -28 -10 -32 0 -84 -35 -107
-72 -50 -82 1 -196 95 -214 50 -9 90 7 90 37 0 16 -5 23 -15 20 -58 -16 -80
-13 -110 17 -41 42 -42 92 -1 133 40 40 64 39 50 -1 -6 -17 -15 -30 -20 -30
-5 0 -9 -7 -9 -16 0 -11 -6 -15 -20 -11 -22 6 -28 -20 -10 -52 13 -24 41 -36
33 -14 -5 13 -1 15 31 9 21 -4 43 -9 50 -12 10 -4 15 13 21 61 4 37 9 64 12
61 4 -3 13 3 21 15 12 18 12 22 -2 38 -21 23 -22 73 -1 65 15 -6 19 0 29 46 5
22 -1 29 -45 54 -27 15 -57 25 -65 22 -8 -3 -14 1 -14 9 0 18 -16 20 -26 4z
m74 -252 c2 -20 -1 -27 -13 -27 -11 0 -15 -5 -11 -15 3 -8 1 -15 -4 -15 -6 0
-10 7 -10 15 0 8 -6 15 -12 16 -10 0 -10 2 0 6 6 2 12 16 12 30 0 35 34 27 38
-10z m-88 -88 c0 -24 -23 -21 -28 4 -2 10 3 17 12 17 10 0 16 -9 16 -21z"/>
<g>
<path d="M340 450 c0 -5 5 -10 11 -10 5 0 7 5 4 10 -3 6 -8 10 -11 10 -2 0 -4
-4 -4 -10z"/>
</g>
</g>
<g>
<path d="M1128 669 c-14 -29 -29 -71 -32 -93 l-5 -39 25 24 c29 27 47 81 42
128 l-3 35 -27 -55z"/>
</g>
<g>
<path d="M1021 667 c10 -54 39 -118 51 -111 15 10 8 69 -15 108 -32 56 -47 57
-36 3z"/>
</g>
<g>
<path d="M6302 613 c-12 -10 -22 -25 -23 -33 -7 -59 15 -90 65 -90 35 0 56 15
55 39 0 12 -2 11 -8 -2 -6 -17 -8 -17 -20 -3 -11 14 -10 17 10 25 17 7 19 10
7 10 -9 1 -20 10 -23 21 -3 11 -11 20 -16 20 -5 0 -9 4 -9 9 0 5 9 7 20 4 11
-3 18 -9 15 -13 -3 -4 2 -10 10 -14 21 -8 19 7 -3 27 -24 22 -55 21 -80 0z
m28 -12 c0 -6 -5 -13 -11 -17 -6 -4 -9 -19 -5 -36 4 -21 2 -28 -7 -25 -18 6
-21 36 -6 63 12 24 29 32 29 15z m24 -30 c7 -11 -4 -71 -13 -71 -3 0 -7 18 -8
40 -2 37 8 52 21 31z"/>
</g>
<g>
<path d="M1006 552 c-3 -22 0 -58 8 -83 l13 -44 12 28 c14 36 14 62 -1 104
-16 43 -24 42 -32 -5z"/>
</g>
<g>
<path d="M1106 510 c-20 -22 -36 -45 -36 -51 0 -5 -5 -7 -12 -3 -6 4 -8 3 -4
-4 3 -6 2 -13 -4 -17 -13 -8 -40 -61 -45 -87 -5 -24 -26 -51 -33 -43 -7 7 -42
-25 -42 -38 0 -6 8 -3 18 6 10 10 24 17 31 17 30 0 85 36 108 72 14 21 23 41
20 44 -3 4 -26 -8 -51 -24 l-45 -31 16 34 c9 19 21 31 28 28 19 -7 79 58 92
100 6 20 8 37 3 37 -4 0 -24 -18 -44 -40z"/>
</g>
<g>
<path d="M1066 504 c-4 -14 -5 -29 -2 -31 3 -3 8 7 12 21 3 15 4 29 1 32 -2 3
-8 -7 -11 -22z"/>
</g>
<g>
<path d="M260 450 c0 -5 5 -10 10 -10 6 0 10 5 10 10 0 6 -4 10 -10 10 -5 0
-10 -4 -10 -10z"/>
</g>
<g>
<path d="M0 360 c0 -11 117 -118 143 -130 13 -7 10 -2 -8 11 -16 13 -54 46
-82 74 -29 29 -53 49 -53 45z"/>
</g>
<g>
<path d="M896 328 c-30 -41 -46 -111 -23 -102 23 8 50 53 57 96 9 47 -1 48
-34 6z"/>
</g>
<g>
<path d="M6303 340 c-8 -11 -9 -21 -3 -25 5 -3 6 -13 3 -21 -3 -9 0 -20 8 -26
11 -7 11 -11 2 -15 -29 -11 -10 -23 37 -23 l50 0 0 59 c0 36 -5 63 -12 67 -6
4 -14 2 -16 -4 -5 -15 -32 -16 -32 -2 0 17 -25 11 -37 -10z m87 -42 c0 -19 -2
-20 -10 -8 -13 19 -13 30 0 30 6 0 10 -10 10 -22z m-30 -34 c0 -8 -4 -14 -10
-14 -5 0 -10 9 -10 21 0 11 5 17 10 14 6 -3 10 -13 10 -21z"/>
</g>
<g>
<path d="M305 320 c-4 -6 6 -10 22 -10 22 0 25 2 13 10 -19 12 -27 12 -35 0z"/>
</g>
<g>
<path d="M0 296 c0 -19 14 -35 63 -69 128 -91 255 -127 452 -127 169 0 295 15
358 42 l51 22 -32 7 c-18 4 -49 3 -68 -1 -33 -8 -34 -7 -20 9 16 18 49 91 44
97 -2 2 -28 -19 -58 -46 -72 -65 -141 -91 -256 -97 -188 -11 -339 34 -471 139
-61 48 -63 49 -63 24z"/>
</g>
<g>
<path d="M5940 289 c0 -5 5 -7 10 -4 6 3 10 8 10 11 0 2 -4 4 -10 4 -5 0 -10
-5 -10 -11z"/>
</g>
<g>
<path d="M975 264 c-44 -16 -105 -55 -105 -66 0 -13 51 -9 85 7 38 19 96 75
74 74 -8 0 -32 -7 -54 -15z"/>
</g>
<g>
<path d="M190 30 c0 -5 -7 -10 -15 -10 -8 0 -15 -5 -15 -11 0 -6 21 -9 53 -7
28 2 51 7 49 13 -2 6 -14 9 -27 7 -14 -2 -25 1 -25 7 0 6 -4 11 -10 11 -5 0
-10 -4 -10 -10z"/>
</g>
<g>
<path d="M341 23 c-1 -21 3 -23 55 -23 34 0 53 4 49 10 -3 6 -15 10 -26 10
-10 0 -19 6 -19 13 -1 7 -6 5 -14 -6 -7 -9 -18 -17 -24 -17 -6 0 -13 8 -15 18
-4 13 -5 11 -6 -5z"/>
</g>
<g>
<path d="M507 20 c-3 -13 0 -20 9 -20 8 0 14 9 14 20 0 11 -4 20 -9 20 -5 0
-11 -9 -14 -20z"/>
</g>
<g>
<path d="M577 33 c-5 -7 -5 -13 0 -14 4 0 -1 -4 -12 -9 -15 -6 -9 -8 25 -8 25
0 35 3 23 5 -12 2 -23 12 -25 21 -3 13 -6 14 -11 5z"/>
</g>
<g>
<path d="M691 28 c-1 -9 -7 -19 -13 -21 -7 -3 1 -6 17 -6 17 0 25 3 19 7 -6 4
-14 14 -17 22 -4 12 -6 12 -6 -2z"/>
</g>
<g>
<path d="M736 24 c-3 -9 -6 -17 -6 -18 0 -1 16 -2 35 -3 19 -1 35 3 35 8 0 5
-9 9 -20 9 -11 0 -20 5 -20 10 0 16 -17 12 -24 -6z"/>
</g>
</g>
</svg>
